<?xml version="1.0" encoding="utf-8"?>
<!DOCTYPE svg PUBLIC "-//W3C//DTD SVG 1.1//EN" "http://www.w3.org/Graphics/SVG/1.1/DTD/svg11.dtd">
<svg xmlns="http://www.w3.org/2000/svg" version="1.1" xmlns:xlink="http://www.w3.org/1999/xlink" xmlns:svgjs="http://svgjs.com/svgjs" width="450" height="110" preserveAspectRatio="none" viewBox="0 0 450 110">
    <g mask="url(&quot;#SvgjsMask1039&quot;)" fill="none">
        <!-- <rect width="450" height="110" x="0" y="0" fill="rgba(16, 84, 132, 1)"></rect> -->
        <path d="M3 110L113 0L150.5 0L40.5 110z" fill="url(#SvgjsLinearGradient1040)"></path>
        <path d="M79.25 110L189.25 0L241.75 0L131.75 110z" fill="url(#SvgjsLinearGradient1040)"></path>
        <path d="M152.5 110L262.5 0L322.5 0L212.5 110z" fill="url(#SvgjsLinearGradient1040)"></path>
        <path d="M233.75 110L343.75 0L369.25 0L259.25 110z" fill="url(#SvgjsLinearGradient1040)"></path>
        <path d="M444 110L334 0L244 0L354 110z" fill="url(#SvgjsLinearGradient1041)"></path>
        <path d="M368.75 110L258.75 0L206.25 0L316.25 110z" fill="url(#SvgjsLinearGradient1041)"></path>
        <path d="M288.5 110L178.5 0L70.5 0L180.5 110z" fill="url(#SvgjsLinearGradient1041)"></path>
        <path d="M225.25 110L115.25 0L40.25 0L150.25 110z" fill="url(#SvgjsLinearGradient1041)"></path>
        <path d="M379.67211036836744 110L450 39.672110368367456L450 110z" fill="url(#SvgjsLinearGradient1040)"></path>
        <path d="M0 110L70.32788963163254 110L 0 39.672110368367456z" fill="url(#SvgjsLinearGradient1041)"></path>
    </g>
    <defs>
        <mask id="SvgjsMask1039">
            <rect width="450" height="110" fill="#ffffff"></rect>
        </mask>
        <linearGradient x1="0%" y1="100%" x2="100%" y2="0%" id="SvgjsLinearGradient1040">
            <stop stop-color="rgba(247, 143, 58, 0.2)" offset="0"></stop>
            <stop stop-opacity="0" stop-color="rgba(247, 143, 58, 0.2)" offset="0.66"></stop>
        </linearGradient>
        <linearGradient x1="100%" y1="100%" x2="0%" y2="0%" id="SvgjsLinearGradient1041">
            <stop stop-color="rgba(247, 143, 58, 0.2)" offset="0"></stop>
            <stop stop-opacity="0" stop-color="rgba(247, 143, 58, 0.2)" offset="0.66"></stop>
        </linearGradient>
    </defs>
</svg>