<?xml version="1.0" encoding="utf-8"?>
<!-- Generator: Adobe Illustrator 13.0.0, SVG Export Plug-In . SVG Version: 6.00 Build 14948)  -->
<!DOCTYPE svg PUBLIC "-//W3C//DTD SVG 1.1//EN" "http://www.w3.org/Graphics/SVG/1.1/DTD/svg11.dtd">
<svg version="1.1" id="Layer_1" xmlns="http://www.w3.org/2000/svg" xmlns:xlink="http://www.w3.org/1999/xlink" x="0px" y="0px"
	 width="125px" height="125px" viewBox="0 0 1000 1000" enable-background="new 0 0 1000 1000" xml:space="preserve">
<path id="small_x5F_box" fill="#084D92" d="M929.07,920.072c0,27.614-22.385,50-50,50H121.113c-27.614,0-50-22.386-50-50v-85
	c0-27.614,22.386-50,50-50H879.07c27.615,0,50,22.386,50,50V920.072z"/>
<g id="Text">
	
		
	<g id="Botera_x5F_outlined">
		<path fill="#FFFFFF" d="M274.547,852.389c0,4.283-0.917,8.366-2.747,12.254c-1.832,3.888-4.579,7.411-8.24,10.564
			c3.661,3.27,6.408,6.846,8.24,10.733c1.829,3.888,2.747,7.973,2.747,12.254c0,4.732-1.132,9.186-3.394,13.354
			c-2.261,4.17-5.335,7.804-9.221,10.902c-3.885,3.101-8.441,5.551-13.67,7.353c-5.229,1.804-10.809,2.704-16.741,2.704h-4.027
			h-19.712h-28.523V818.076h28.523h23.739c5.933,0,11.512,0.903,16.741,2.704c5.229,1.804,9.785,4.255,13.67,7.353
			c3.886,3.101,6.959,6.735,9.221,10.902C273.415,843.205,274.547,847.655,274.547,852.389z M246.024,852.389
			c0-3.22-1.417-5.911-4.249-8.076c-2.833-2.166-6.233-3.249-10.198-3.249h-23.795v22.649h23.795c3.965,0,7.365-1.08,10.198-3.245
			C244.608,858.302,246.024,855.61,246.024,852.389z M246.024,898.11c0-3.243-1.417-5.956-4.249-8.138s-6.233-3.271-10.198-3.271
			h-4.037h-19.758v22.818h23.795c3.965,0,7.365-1.117,10.198-3.354S246.024,901.242,246.024,898.11z"/>
		<path fill="#FFFFFF" d="M396.245,879.095v22.987c0,4.17-0.987,8.113-2.958,11.832c-1.974,3.719-4.685,6.959-8.135,9.719
			c-3.453,2.763-7.5,4.931-12.148,6.508c-4.648,1.579-9.581,2.366-14.79,2.366h-16.058c-5.212,0-10.141-0.787-14.79-2.366
			c-4.648-1.577-8.699-3.745-12.149-6.508c-3.453-2.76-6.164-6-8.134-9.719c-1.974-3.719-2.958-7.662-2.958-11.832v-22.987
			c0-4.168,0.984-8.113,2.958-11.832c1.971-3.719,4.681-6.956,8.134-9.719c3.45-2.76,7.5-4.929,12.149-6.508
			c4.648-1.577,9.577-2.366,14.79-2.366h16.058c5.209,0,10.142,0.789,14.79,2.366c4.648,1.579,8.695,3.748,12.148,6.508
			c3.45,2.763,6.161,6,8.135,9.719C395.258,870.981,396.245,874.927,396.245,879.095z M367.722,901.979v-22.782
			c0-2.123-0.951-3.908-2.852-5.361c-1.902-1.452-4.12-2.179-6.656-2.179h-16.058c-2.677,0-4.932,0.727-6.761,2.179
			c-1.833,1.453-2.747,3.238-2.747,5.361v22.782c0,2.123,0.914,3.911,2.747,5.363c1.829,1.453,4.083,2.177,6.761,2.177h16.058
			c2.536,0,4.754-0.724,6.656-2.177C366.771,905.891,367.722,904.103,367.722,901.979z"/>
		<path fill="#FFFFFF" d="M484.561,909.52v22.987h-13.522c-5.213,0-10.142-0.787-14.79-2.366c-4.648-1.577-8.699-3.774-12.148-6.592
			c-3.453-2.815-6.164-6.057-8.134-9.72c-1.975-3.66-2.958-7.632-2.958-11.916v-30.425h-6.55v-22.987h6.55v-7.606v-22.987h28.523
			v22.987v7.606h23.03v22.987h-23.03v30.29c0,2.134,0.951,3.956,2.853,5.47c1.901,1.516,4.12,2.271,6.655,2.271H484.561z"/>
		<path fill="#FFFFFF" d="M600.342,932.507h-54.723h-28.523V818.076h28.523h54.723v22.987h-54.723v22.818h40.989v22.988h-40.989
			v22.649h54.723V932.507z"/>
		<path fill="#FFFFFF" d="M697.953,848.501v22.987h-27.467c-6.48,0-9.72,2.535-9.72,7.606v30.594v22.818h-28.522v-22.818v-30.594
			c0-4.168,0.983-8.113,2.958-11.832c1.971-3.719,4.717-6.985,8.239-9.804c3.52-2.815,7.57-5.013,12.149-6.592
			c4.575-1.577,9.54-2.366,14.896-2.366H697.953z"/>
		<path fill="#FFFFFF" d="M814.578,924.731v7.775h-28.522h-31.481c-3.915,0-7.623-0.592-11.115-1.774
			c-3.496-1.184-6.537-2.815-9.125-4.902c-2.589-2.084-4.615-4.534-6.081-7.353c-1.469-2.815-2.202-5.802-2.202-8.958v-7.606
			c0-3.153,0.733-6.141,2.202-8.958c1.466-2.815,3.492-5.267,6.081-7.354c2.588-2.083,5.629-3.718,9.125-4.901
			c3.492-1.184,7.2-1.774,11.115-1.774h12.337h19.145c0-2.092-0.918-3.856-2.747-5.288c-1.832-1.431-4.087-2.149-6.761-2.149
			h-45.215v-22.987h45.215c5.209,0,10.125,0.789,14.743,2.366c4.618,1.579,8.676,3.748,12.172,6.508c3.493,2.762,6.22,6,8.178,9.719
			c1.957,3.719,2.938,7.664,2.938,11.832V924.731z M754.574,900.561v10.311h31.481v-10.311h-19.145H754.574z"/>
	</g>
</g>
<path id="shadow_x5F_box" fill="#CCCACA" d="M774.071,123.106h-59.269l13.695-40.423c0.421-1.069,0.792-2.163,1.111-3.279L730,78.25
	l-0.073-0.014C730.624,75.438,731,72.513,731,69.5c0-19.882-16.118-36-36-36c-18.156,0-33.166,13.444-35.637,30.919L658.5,64.25
	l-19.208,58.856H352.776L337.32,61.5l-0.597,0.108C335.478,43.395,320.148,29,301.407,29C281.853,29,266,44.669,266,64
	c0,3.518,0.531,6.912,1.508,10.115l-0.749,0.135l11.673,48.856h-62.318c-82.843,0-150,67.157-150,150v302.97
	c0,82.843,67.157,150,150,150h557.957c82.843,0,150-67.157,150-150v-302.97C924.071,190.264,856.914,123.106,774.071,123.106z"/>
<linearGradient id="gradient_x5F_box_2_" gradientUnits="userSpaceOnUse" x1="70.5156" y1="382.7012" x2="928.4727" y2="382.7012">
	<stop  offset="0.1067" style="stop-color:#EC1C24"/>
	<stop  offset="0.2023" style="stop-color:#F87A74"/>
	<stop  offset="0.2582" style="stop-color:#FFAD9F"/>
	<stop  offset="0.2793" style="stop-color:#F89B8F"/>
	<stop  offset="0.3313" style="stop-color:#EA736D"/>
	<stop  offset="0.385" style="stop-color:#DF5251"/>
	<stop  offset="0.44" style="stop-color:#D6383B"/>
	<stop  offset="0.4967" style="stop-color:#CF262B"/>
	<stop  offset="0.5563" style="stop-color:#CB1C22"/>
	<stop  offset="0.6236" style="stop-color:#CA181F"/>
	<stop  offset="0.9326" style="stop-color:#A9141A"/>
</linearGradient>
<g id="Layer_3">
	<linearGradient id="gradient_x5F_box_3_" gradientUnits="userSpaceOnUse" x1="68.5708" y1="381.6836" x2="926.5273" y2="381.6836">
		<stop  offset="0.0934" style="stop-color:#F78F3A"/>
		<stop  offset="0.1732" style="stop-color:#FB9E6D"/>
		<stop  offset="0.2582" style="stop-color:#FFAD9F"/>
		<stop  offset="0.3112" style="stop-color:#FDA479"/>
		<stop  offset="0.3681" style="stop-color:#FB9D59"/>
		<stop  offset="0.4269" style="stop-color:#F9973F"/>
		<stop  offset="0.4877" style="stop-color:#F8922D"/>
		<stop  offset="0.5515" style="stop-color:#F79023"/>
		<stop  offset="0.6236" style="stop-color:#F78F1F"/>
		<stop  offset="0.9326" style="stop-color:#F38F3A"/>
	</linearGradient>
	<path id="gradient_x5F_box_1_" fill="url(#gradient_x5F_box_3_)" d="M776.527,127.252H717.26l13.695-40.424
		c0.42-1.069,0.791-2.162,1.111-3.278l0.391-1.154l-0.074-0.015c0.697-2.797,1.074-5.723,1.074-8.735c0-19.883-16.119-36-36-36
		c-18.156,0-33.166,13.443-35.637,30.919l-0.863-0.169l-19.209,58.856H355.232l-15.455-61.606l-0.598,0.107
		c-1.245-18.213-16.574-32.607-35.315-32.607c-19.555,0-35.407,15.669-35.407,35c0,3.518,0.531,6.911,1.508,10.114l-0.749,0.136
		l11.673,48.856h-62.317c-82.843,0-150,67.157-150,150v302.97c0,82.843,67.157,150,150,150h557.957c82.844,0,150-67.157,150-150
		v-302.97C926.527,194.409,859.371,127.252,776.527,127.252z"/>
</g>
<path id="face_x5F_bubble" fill="#FFFFFF" d="M732.5,429.5c0,99.964-103.87,181-232,181c-49.538,0-95.45-12.113-133.134-32.75
	c-39.866,12.75-99.433,33.33-99.433,33.33S302,545.5,308.213,530.805C283.142,501.896,268.5,467.032,268.5,429.5
	c0-99.964,103.87-181,232-181C628.63,248.5,732.5,329.536,732.5,429.5z"/>
<circle id="LeftEye" fill="#084D92" cx="449.5" cy="427.5" r="35"/>
<circle id="RightEye" fill="#084D92" cx="577.5" cy="427.5" r="35"/>
</svg>
