<?xml version="1.0" standalone="no"?>
<!DOCTYPE svg PUBLIC "-//W3C//DTD SVG 20010904//EN" "http://www.w3.org/TR/2001/REC-SVG-20010904/DTD/svg10.dtd">
<svg version="1.0" xmlns="http://www.w3.org/2000/svg" width="64.000000pt" height="64.000000pt" viewBox="0 0 64.000000 64.000000" preserveAspectRatio="xMidYMid meet">

<g transform="translate(0.000000,64.000000) scale(0.100000,-0.100000)" fill="#ffffff" stroke="none">
<path d="M225 623 c-81 -29 -110 -56 -152 -141 -35 -72 -38 -84 -42 -184 l-3 -108 29 -27 c16 -16 32 -36 36 -46 3 -9 18 -22 31 -29 20 -9 30 -8 51 6 24 16 25 20 25 121 0 101 -1 105 -25 121 -32 21 -71 7 -85 -31 -18 -48 -33 -29 -25 33 7 60 41 152 56 152 5 0 32 16 60 35 90 61 179 61 283 -1 50 -29 71 -49 86 -80 24 -48 39 -164 21 -164 -6 0 -16 11 -21 25 -14 38 -53 52 -85 31 -24 -16 -25 -20 -25 -121 0 -101 1 -105 25 -121 32 -21 71 -7 85 31 12 33 29 32 22 0 -7 -39 -55 -81 -99 -88 -70 -12 -89 -9 -101 18 -9 20 -19 25 -51 25 -44 0 -64 -18 -59 -52 3 -23 5 -23 125 -23 132 0 151 6 197 69 19 25 21 42 21 179 0 146 -1 154 -27 208 -16 31 -28 60 -28 66 0 18 -55 62 -104 84 -68 30 -157 34 -221 12z"/>
</g>
</svg>
