<svg width="94" height="94" viewBox="0 0 94 94" fill="none" xmlns="http://www.w3.org/2000/svg">
<path fill-rule="evenodd" clip-rule="evenodd" d="M15.6667 41.7779V66.1483H7.83333V41.7779H15.6667ZM0 38.2964V69.6297C0 71.5525 1.75355 73.1112 3.91667 73.1112H19.5833C21.7464 73.1112 23.5 71.5525 23.5 69.6297V38.2964C23.5 36.3737 21.7464 34.8149 19.5833 34.8149H3.91667C1.75355 34.8149 0 36.3737 0 38.2964Z" fill="white"/>
<path fill-rule="evenodd" clip-rule="evenodd" d="M45.042 83.5555V87.037H35.2503V83.5555H45.042ZM27.417 80.074V90.5185C27.417 92.4412 29.1705 93.9999 31.3337 93.9999H48.9587C51.1218 93.9999 52.8753 92.4412 52.8753 90.5185V80.074C52.8753 78.1512 51.1218 76.5925 48.9587 76.5925H31.3337C29.1705 76.5925 27.417 78.1512 27.417 80.074Z" fill="white"/>
<path fill-rule="evenodd" clip-rule="evenodd" d="M27.4163 88.7779C29.5795 88.7779 31.333 87.2192 31.333 85.2964C31.333 83.3737 29.5795 81.815 27.4163 81.815C20.927 81.815 15.6663 77.1388 15.6663 71.3705C15.6663 69.4478 13.9128 67.889 11.7497 67.889C9.58656 67.889 7.83301 69.4478 7.83301 71.3705C7.83301 80.9844 16.6008 88.7779 27.4163 88.7779Z" fill="white"/>
<path fill-rule="evenodd" clip-rule="evenodd" d="M86.1667 41.7779V66.1483H78.3333V41.7779H86.1667ZM70.5 38.2964V69.6297C70.5 71.5525 72.2536 73.1112 74.4167 73.1112H90.0833C92.2464 73.1112 94 71.5525 94 69.6297V38.2964C94 36.3737 92.2464 34.8149 90.0833 34.8149H74.4167C72.2536 34.8149 70.5 36.3737 70.5 38.2964Z" fill="white"/>
<path fill-rule="evenodd" clip-rule="evenodd" d="M46.9997 0C25.3685 0 7.83301 15.5871 7.83301 34.8148C7.83301 36.7376 9.58656 38.2963 11.7497 38.2963C13.9128 38.2963 15.6663 36.7376 15.6663 34.8148C15.6663 19.4327 29.6947 6.96296 46.9997 6.96296C64.3046 6.96296 78.333 19.4327 78.333 34.8148C78.333 36.7376 80.0866 38.2963 82.2497 38.2963C84.4128 38.2963 86.1663 36.7376 86.1663 34.8148C86.1663 15.5871 68.6308 0 46.9997 0Z" fill="white"/>
</svg>
