<?xml version="1.0" encoding="utf-8"?>
<!-- Generator: Adobe Illustrator 13.0.0, SVG Export Plug-In . SVG Version: 6.00 Build 14948)  -->
<!DOCTYPE svg PUBLIC "-//W3C//DTD SVG 1.1//EN" "http://www.w3.org/Graphics/SVG/1.1/DTD/svg11.dtd">
<svg version="1.1" xmlns="http://www.w3.org/2000/svg" xmlns:xlink="http://www.w3.org/1999/xlink" x="0px" y="0px" width="400px"
	 height="400px" viewBox="0 0 400 400" enable-background="new 0 0 400 400" xml:space="preserve">
<g id="Paths">
</g>
<g id="Circle">
	<circle id="Green" fill="#1BD600" cx="199" cy="199.5" r="190"/>
</g>
<g id="Tup_x5F_clicked">
	<path fill="#FFFFFF" d="M175.781,22.395c6.521,26.201,8.295,45.14,5.426,58.086c-1.459,6.557-3.519,11.037-8.747,18.955
		c-5.803,8.821-8.633,14.856-9.463,20.211c-0.12,0.807-0.417,4.353-0.689,7.891c-1.355,19.298-3.367,33.854-6.324,45.986
		c-2.91,11.808-7.072,21.192-11.531,25.919c-2.202,2.331-3.581,3.114-7.85,4.51l-3.786,1.236l19.809,60.589
		c10.896,33.329,19.855,60.574,19.924,60.551c0.069-0.022,1.515-0.214,3.228-0.443c1.744-0.212,6.156-0.784,9.799-1.286
		c3.674-0.486,9.623-1.28,13.226-1.744c42.698-5.683,38.903-5.105,46.7-6.965c11.487-2.757,24.276-6.072,36.876-9.578
		c8.638-2.415,32.389-10.181,38.084-12.452c11.629-4.671,18.386-8.309,21.94-11.822c6.247-6.207,12.937-18.41,13.976-25.467
		l0.327-2.28l-2.397-7.8c-1.763-5.709-2.394-8.031-2.36-8.707c0.098-1.975,1.008-4.264,4.278-10.749
		c3.666-7.228,4.709-19.04-1.682-26.634c-4.231-5.054-6.1-7.714-6.733-9.653c-0.777-2.377-0.09-5.284,2.906-12.216
		c3.32-7.73-0.08-16.964-4.23-20.514c-7.174-6.161-9.364-8.638-9.812-11.021c-0.32-1.761,0.131-3.979,1.777-8.784
		c2.922-8.49,3.154-10.049,1.872-13.028c-2.047-4.771-8.558-11.408-15.695-16.047c-2.693-1.751-7.615-4.153-9.779-4.75
		c-4.761-1.356-10.917-0.493-27.092,3.876c-5.685,1.527-30.926,9.652-47.385,15.263l-9.425,3.209l-1.083-1.434
		c-2.149-2.825-3.4-8.137-3.472-14.757c-0.061-6.52,0.512-12.43,2.682-26.961c0.849-5.771,1.664-11.632,1.767-13.045
		c0.415-5.373,0.11-11.226-0.951-17.522c-0.55-3.396-4.23-14.892-5.628-17.603c-5.111-9.927-10.038-15.624-16.911-19.457
		C198.096,10.781,175.234,20.172,175.781,22.395z"/>
	<path fill="#FFFFFF" d="M69.063,219.928c-2.62,1.598-5.021,5.192-5.554,8.331c-0.565,3.43-1.921-1.032,18.748,62.187
		c16.458,50.34,18.859,57.527,19.582,58.723c2.366,3.876,6.798,6.182,11.385,5.908c1.604-0.091,39.666-12.457,41.222-13.399
		c3.861-2.338,6.365-7.575,5.768-12.056c-0.235-1.813-37.318-115.235-38.199-116.836c-2.166-3.969-7.28-6.715-11.775-6.319
		C108.825,206.596,70.257,219.205,69.063,219.928z"/>
</g>
</svg>
