<?xml version="1.0" encoding="utf-8"?>
<!-- Generator: Adobe Illustrator 13.0.0, SVG Export Plug-In . SVG Version: 6.00 Build 14948)  -->
<!DOCTYPE svg PUBLIC "-//W3C//DTD SVG 1.1//EN" "http://www.w3.org/Graphics/SVG/1.1/DTD/svg11.dtd">
<svg version="1.1" xmlns="http://www.w3.org/2000/svg" xmlns:xlink="http://www.w3.org/1999/xlink" x="0px" y="0px" width="400px"
	 height="400px" viewBox="0 0 400 400" enable-background="new 0 0 400 400" xml:space="preserve">
<g id="Paths">
</g>
<g id="Circle">
	<g id="Red">
		<circle id="Green_1_" fill="#EA4721" cx="199" cy="199" r="190"/>
	</g>
</g>
<g id="Tdown_x5F_clicked">
	<path fill="#FFFFFF" d="M228.352,365.607c-7.063-24.844-9.355-42.896-7.022-55.364c1.188-6.316,3.017-10.663,7.765-18.399
		c5.271-8.617,7.785-14.477,8.409-19.622c0.091-0.774,0.262-4.175,0.41-7.565c0.687-18.495,2.15-32.475,4.595-44.167
		c2.41-11.381,6.092-20.485,10.206-25.146c2.031-2.297,3.324-3.09,7.363-4.56l3.58-1.303l-20.854-57.302
		c-11.471-31.521-20.896-57.288-20.964-57.263c-0.064,0.024-1.439,0.253-3.07,0.526c-1.661,0.257-5.86,0.944-9.327,1.54
		c-3.497,0.58-9.161,1.528-12.59,2.085c-40.644,6.781-37.034,6.109-44.43,8.134c-10.896,2.999-23.019,6.572-34.954,10.323
		c-8.183,2.582-30.645,10.756-36.019,13.107c-10.971,4.833-17.315,8.525-20.603,11.996c-5.777,6.133-11.787,18.011-12.558,24.791
		l-0.24,2.19l2.538,7.382c1.865,5.402,2.542,7.602,2.532,8.25c-0.03,1.891-0.829,4.109-3.752,10.413
		c-3.276,7.026-3.9,18.352,2.451,25.412c4.205,4.698,6.075,7.183,6.743,9.017c0.818,2.248,0.253,5.049-2.393,11.771
		c-2.931,7.496,0.612,16.216,4.691,19.479c7.055,5.664,9.227,7.963,9.73,10.228c0.361,1.674,0,3.808-1.422,8.454
		c-2.526,8.21-2.698,9.708-1.378,12.516c2.108,4.497,8.542,10.636,15.514,14.847c2.629,1.589,7.412,3.73,9.5,4.232
		c4.595,1.146,10.453,0.126,25.779-4.562c5.388-1.64,29.264-10.204,44.823-16.089l8.91-3.366l1.081,1.337
		c2.144,2.633,3.508,7.671,3.785,13.999c0.264,6.232-0.097,11.901-1.713,25.861c-0.628,5.546-1.223,11.176-1.276,12.529
		c-0.228,5.149,0.249,10.736,1.462,16.723c0.632,3.229,4.514,14.104,5.937,16.651c5.201,9.33,10.091,14.62,16.784,18.068
		C207.384,377.416,228.945,367.716,228.352,365.607z"/>
	<path fill="#FFFFFF" d="M324.146,173.376c2.454-1.609,4.637-5.123,5.046-8.14c0.433-3.296,1.871,0.927-19.888-58.864
		c-17.326-47.609-19.849-54.406-20.577-55.525c-2.385-3.631-6.695-5.696-11.071-5.289c-1.531,0.136-37.531,13.163-38.989,14.113
		c-3.617,2.356-5.847,7.442-5.133,11.707c0.281,1.727,39.318,108.997,40.212,110.5c2.194,3.726,7.172,6.19,11.457,5.67
		C286.55,187.379,323.025,174.105,324.146,173.376z"/>
</g>
</svg>
