<?xml version="1.0" encoding="utf-8"?>
<!-- Generator: Adobe Illustrator 13.0.0, SVG Export Plug-In . SVG Version: 6.00 Build 14948)  -->
<!DOCTYPE svg PUBLIC "-//W3C//DTD SVG 1.1//EN" "http://www.w3.org/Graphics/SVG/1.1/DTD/svg11.dtd">
<svg xmlns="http://www.w3.org/2000/svg" xmlns:xlink="http://www.w3.org/1999/xlink" version="1.1" x="0px" y="0px" width="400px" height="400px" viewBox="0 0 400 400" enable-background="new 0 0 400 400" xml:space="preserve">

<g id="Circle">
	
	<g id="Red">
		<circle id="Green_1_" fill="#a96a6e" cx="199" cy="199" r="190"/>
	</g>
</g>


<g id="Tdown">
	<path fill="#e3e0e0" d="M182.093,313.146c1.46-20.226,4.614-34.158,9.684-42.73c2.572-4.341,5.088-7.058,10.668-11.489   c6.201-4.943,9.63-8.591,11.472-12.219c0.274-0.548,1.313-3.01,2.334-5.472c5.472-13.46,10.305-23.381,15.247-31.351   c4.833-7.75,9.994-13.478,14.28-15.812c2.115-1.149,3.282-1.387,6.656-1.387h2.991v-47.873c0-26.335-0.036-47.874-0.092-47.874   c-0.055,0-1.131-0.2-2.407-0.437c-1.295-0.256-4.577-0.877-7.295-1.368c-2.735-0.511-7.168-1.332-9.848-1.842   c-31.806-5.909-28.962-5.436-34.962-5.928c-8.844-0.713-18.747-1.331-28.559-1.769c-6.729-0.292-25.496-0.292-30.092,0   c-9.392,0.62-15.063,1.641-18.421,3.318c-5.908,2.974-13.531,10.123-15.92,14.918l-0.766,1.551l-0.109,6.128   c-0.074,4.486-0.165,6.291-0.347,6.766c-0.53,1.387-1.715,2.809-5.563,6.675c-4.304,4.304-7.805,12.492-5.015,19.405   c1.841,4.595,2.554,6.93,2.554,8.462c0,1.878-1.169,3.793-4.926,8.042c-4.175,4.743-3.902,12.128-1.769,15.631   c3.684,6.072,4.669,8.352,4.433,10.157c-0.183,1.332-1.022,2.81-3.319,5.855c-4.067,5.379-4.597,6.438-4.377,8.863   c0.348,3.884,3.446,10.14,7.459,15.118c1.514,1.879,4.467,4.742,5.872,5.673c3.082,2.079,7.678,2.899,20.243,3.556   c4.415,0.237,24.329,0.328,37.388,0.164l7.477-0.091l0.438,1.276c0.875,2.518,0.528,6.602-0.966,11.344   c-1.479,4.669-3.267,8.754-8.207,18.62c-1.952,3.922-3.902,7.916-4.305,8.9c-1.551,3.738-2.699,7.987-3.411,12.729   c-0.4,2.553-0.456,11.617-0.091,13.879c1.332,8.279,3.52,13.495,7.531,17.836C163.455,316.228,181.965,314.859,182.093,313.146z"/>
	<path fill="#e3e0e0" d="M304.375,197.045c2.243-0.528,4.796-2.534,5.908-4.65c1.204-2.316,1.131,1.186,1.131-48.767   c0-39.775-0.036-45.467-0.273-46.488c-0.784-3.318-3.41-5.999-6.748-6.874c-1.166-0.311-31.222-0.365-32.553-0.056   c-3.302,0.768-6.312,3.921-6.931,7.259c-0.256,1.35-0.256,90.969,0,92.317c0.619,3.338,3.629,6.492,6.931,7.259   C272.879,197.282,303.354,197.282,304.375,197.045z"/>
</g>
</svg>
