<?xml version="1.0" encoding="utf-8"?>
<!-- Generator: Adobe Illustrator 13.0.0, SVG Export Plug-In . SVG Version: 6.00 Build 14948)  -->
<!DOCTYPE svg PUBLIC "-//W3C//DTD SVG 1.1//EN" "http://www.w3.org/Graphics/SVG/1.1/DTD/svg11.dtd">
<svg xmlns="http://www.w3.org/2000/svg" xmlns:xlink="http://www.w3.org/1999/xlink" version="1.1" x="0px" y="0px" width="400px" height="400px" viewBox="0 0 400 400" enable-background="new 0 0 400 400" xml:space="preserve">

<g id="Circle">
	<circle id="Green" fill="#27C10C" cx="199" cy="199.5" r="190"/>
	
</g>

<g id="Tup">
	<path fill="#FFFFFF" d="M217.906,86.855c-1.46,20.225-4.614,34.158-9.684,42.73c-2.572,4.34-5.088,7.057-10.668,11.489   c-6.201,4.943-9.629,8.59-11.472,12.219c-0.274,0.548-1.313,3.01-2.334,5.472c-5.471,13.459-10.305,23.38-15.247,31.35   c-4.833,7.75-9.994,13.478-14.28,15.812c-2.116,1.149-3.282,1.387-6.656,1.387h-2.991v47.873c0,26.335,0.036,47.874,0.091,47.874   c0.055,0,1.131,0.2,2.407,0.437c1.295,0.256,4.578,0.877,7.295,1.368c2.736,0.511,7.168,1.332,9.848,1.842   c31.806,5.909,28.961,5.436,34.961,5.928c8.844,0.713,18.748,1.331,28.559,1.769c6.729,0.292,25.496,0.292,30.092,0   c9.392-0.62,15.063-1.641,18.421-3.318c5.908-2.974,13.531-10.123,15.92-14.918l0.766-1.551l0.109-6.128   c0.074-4.486,0.165-6.291,0.347-6.766c0.53-1.387,1.715-2.809,5.563-6.675c4.304-4.304,7.805-12.492,5.015-19.405   c-1.841-4.595-2.554-6.93-2.554-8.462c0-1.878,1.169-3.793,4.926-8.042c4.175-4.743,3.902-12.128,1.769-15.631   c-3.684-6.072-4.669-8.352-4.433-10.157c0.183-1.332,1.022-2.81,3.319-5.855c4.067-5.379,4.597-6.438,4.377-8.863   c-0.348-3.884-3.446-10.14-7.459-15.118c-1.514-1.878-4.467-4.742-5.872-5.672c-3.082-2.079-7.678-2.9-20.243-3.556   c-4.415-0.237-24.329-0.328-37.388-0.164l-7.477,0.091l-0.438-1.276c-0.875-2.518-0.528-6.602,0.966-11.344   c1.479-4.668,3.267-8.754,8.207-18.62c1.952-3.921,3.902-7.916,4.305-8.9c1.551-3.739,2.699-7.988,3.411-12.73   c0.4-2.553,0.456-11.617,0.091-13.879c-1.332-8.279-3.52-13.495-7.531-17.836C236.545,83.773,218.034,85.141,217.906,86.855z"/>
	<path fill="#FFFFFF" d="M95.625,202.955c-2.243,0.528-4.796,2.534-5.909,4.65c-1.204,2.316-1.131-1.186-1.131,48.767   c0,39.775,0.036,45.467,0.273,46.488c0.784,3.318,3.41,5.999,6.748,6.874c1.167,0.311,31.222,0.365,32.553,0.056   c3.301-0.768,6.311-3.921,6.931-7.259c0.255-1.35,0.255-90.969,0-92.317c-0.62-3.338-3.629-6.492-6.931-7.259   C127.121,202.718,96.646,202.718,95.625,202.955z"/>
</g>

</svg>
