<?xml version="1.0" standalone="no"?>
<!DOCTYPE svg PUBLIC "-//W3C//DTD SVG 20010904//EN"
 "http://www.w3.org/TR/2001/REC-SVG-20010904/DTD/svg10.dtd">
<svg version="1.0" xmlns="http://www.w3.org/2000/svg" width="64.000000pt" height="64.000000pt" viewBox="0 0 64.000000 64.000000" preserveAspectRatio="xMidYMid meet">
<g transform="translate(0.000000,64.000000) scale(0.100000,-0.100000)"
fill="#ffffff" stroke="none">
<path d="M255 626 c-43 -18 -93 -79 -101 -122 -15 -81 43 -172 124 -193 85 -23 176 29 202 116 17 55 6 106 -33 150 -52 60 -125 78 -192 49z m126 -41 c64 -34 87 -118 49 -180 -21 -35 -73 -65 -110 -65 -37 0 -89 30 -110 65 -68 110 55 239 171 180z"/>
<path d="M249 260 c-115 -20 -199 -107 -203 -209 l-1 -46 275 0 275 0 -1 46 c-3 78 -59 155 -139 190 -49 21 -144 30 -206 19z m197 -53 c36 -19 77 -62 98 -104 33 -65 41 -63 -224 -63 -268 0 -257 -3 -221 69 24 46 82 99 119 107 15 3 32 8 37 10 23 9 164 -5 191 -19z"/>
</g>
</svg>
