<?xml version="1.0" standalone="no"?>
<!DOCTYPE svg PUBLIC "-//W3C//DTD SVG 20010904//EN"
 "http://www.w3.org/TR/2001/REC-SVG-20010904/DTD/svg10.dtd">
<svg version="1.0" width="20" height="20" viewBox="0 0 20 20" fill="none" xmlns="http://www.w3.org/2000/svg">
<path fill-rule="evenodd" clip-rule="evenodd" d="M9.99999 0.5C7.37562 0.5 5.24999 2.62562 5.24999 5.25C5.24999 7.87437 7.37562 10 9.99999 10C12.6244 10 14.75 7.87437 14.75 5.25C14.75 2.62562 12.6244 0.5 9.99999 0.5ZM12.4937 5.25C12.4937 3.87249 11.3775 2.75624 9.99999 2.75624C8.62249 2.75624 7.50624 3.87249 7.50624 5.25C7.50624 6.6275 8.62249 7.74375 9.99999 7.74375C11.3775 7.74375 12.4937 6.6275 12.4937 5.25ZM17.2437 15.9375C17.2437 15.1775 13.5269 13.4438 10 13.4438C6.47312 13.4438 2.75625 15.1775 2.75625 15.9375V17.2438H17.2437V15.9375ZM0.5 15.9375C0.5 12.7788 6.82937 11.1875 10 11.1875C13.1706 11.1875 19.5 12.7788 19.5 15.9375V18.3125C19.5 18.9656 18.9656 19.5 18.3125 19.5H1.6875C1.03438 19.5 0.5 18.9656 0.5 18.3125V15.9375Z" fill="white"/>
</svg>