<svg width="81" height="23" viewBox="0 0 81 23" fill="none" xmlns="http://www.w3.org/2000/svg">
<path d="M0.188965 15.001C0.188965 16.1357 0.363281 17.1475 0.711914 18.0361C1.06055 18.9248 1.54932 19.6768 2.17822 20.292C2.80713 20.9141 3.54883 21.3857 4.40332 21.707C5.26465 22.0352 6.20459 22.1992 7.22314 22.1992C8.8501 22.1992 10.1934 21.8574 11.2529 21.1738C12.3125 20.4902 13.1772 19.4648 13.8472 18.0977C14.0454 17.7148 14.2334 17.3149 14.4111 16.8979C14.5889 16.481 14.7598 16.0469 14.9238 15.5957C15.0879 15.1377 15.2485 14.6626 15.4058 14.1704C15.563 13.6782 15.7236 13.1689 15.8877 12.6426C15.9766 12.3555 16.0688 12.0547 16.1646 11.7402C16.2671 11.4189 16.3525 11.1216 16.4209 10.8481C16.4961 10.5747 16.5337 10.356 16.5337 10.1919C16.5337 9.91846 16.4414 9.69629 16.2568 9.52539C16.0791 9.35449 15.8433 9.26904 15.5493 9.26904C15.228 9.26904 14.9546 9.37842 14.729 9.59717C14.5103 9.81592 14.2813 10.168 14.042 10.6533L12.6167 13.6475C12.5483 13.8115 12.4731 13.9277 12.3911 13.9961C12.3091 14.0645 12.2271 14.0986 12.145 14.0986C12.0356 14.0986 11.9468 14.0645 11.8784 13.9961C11.8169 13.9209 11.7861 13.7944 11.7861 13.6167L11.7861 2.86035C11.7861 2.55957 11.6768 2.30322 11.458 2.09131C11.2461 1.87256 10.9897 1.76318 10.689 1.76318C10.3882 1.76318 10.1284 1.87256 9.90967 2.09131C9.69775 2.30322 9.5918 2.55957 9.5918 2.86035V10.5508C9.44824 10.4961 9.30127 10.4482 9.15088 10.4072C9.00049 10.3662 8.84326 10.332 8.6792 10.3047V1.38379C8.6792 1.07617 8.56982 0.816406 8.35107 0.604492C8.13916 0.385742 7.88281 0.276367 7.58203 0.276367C7.27441 0.276367 7.01123 0.385742 6.79248 0.604492C6.58057 0.816406 6.47461 1.07617 6.47461 1.38379V10.1919C6.31738 10.2056 6.15674 10.2227 5.99268 10.2432C5.82861 10.2637 5.66797 10.2876 5.51074 10.3149V2.25537C5.51074 1.95459 5.40137 1.69824 5.18262 1.48633C4.9707 1.26758 4.71436 1.1582 4.41357 1.1582C4.11279 1.1582 3.85303 1.26758 3.63428 1.48633C3.42236 1.69824 3.31641 1.95459 3.31641 2.25537V11.0122C3.14551 11.0942 2.98145 11.1797 2.82422 11.2686C2.67383 11.3574 2.53027 11.4463 2.39355 11.5352L2.39355 5.44434C2.39355 5.14355 2.28418 4.88721 2.06543 4.67529C1.85352 4.45654 1.59717 4.34717 1.29639 4.34717C0.98877 4.34717 0.725586 4.45654 0.506836 4.67529C0.294922 4.88721 0.188965 5.14355 0.188965 5.44434L0.188965 15.001ZM31.1968 22.2915C31.5044 22.2915 31.9077 22.2163 32.4067 22.0659C32.9058 21.9155 33.4424 21.7139 34.0166 21.4609C34.5977 21.208 35.1685 20.9277 35.729 20.6201C36.2964 20.3193 36.7988 20.0117 37.2363 19.6973C37.3252 19.6357 37.4072 19.5913 37.4824 19.564C37.5576 19.5366 37.6294 19.5229 37.6978 19.5229C37.7661 19.5298 37.8345 19.5332 37.9028 19.5332C37.9712 19.54 38.0361 19.5435 38.0977 19.5435C39.5742 19.5435 40.9448 19.3862 42.2095 19.0718C43.4741 18.7573 44.6089 18.313 45.6138 17.7388C46.6255 17.1646 47.4868 16.4912 48.1978 15.7187C48.9087 14.9395 49.4521 14.085 49.8281 13.1553C50.2041 12.2256 50.3921 11.2515 50.3921 10.2329C50.3921 8.94092 50.0913 7.73096 49.4897 6.60303C48.895 5.4751 48.0645 4.4873 46.998 3.63965C45.9385 2.78516 44.7046 2.11865 43.2964 1.64014C41.8882 1.15479 40.3774 0.912109 38.7642 0.912109C37.1509 0.912109 35.6401 1.15479 34.2319 1.64014C32.8237 2.11865 31.5864 2.78516 30.52 3.63965C29.4604 4.4873 28.6299 5.4751 28.0283 6.60303C27.4336 7.73096 27.1362 8.94092 27.1362 10.2329C27.1362 11.3267 27.3481 12.3657 27.772 13.3501C28.2026 14.3345 28.8145 15.2368 29.6074 16.0571C30.4072 16.8706 31.354 17.5713 32.4478 18.1592C32.5229 18.2002 32.5708 18.2583 32.5913 18.3335C32.6187 18.4019 32.6118 18.4736 32.5708 18.5488C32.3794 18.8633 32.1538 19.188 31.894 19.5229C31.6343 19.8579 31.3813 20.1655 31.1353 20.4458C30.896 20.7329 30.7114 20.9619 30.5815 21.1328C30.3833 21.3926 30.3354 21.6489 30.438 21.9019C30.5474 22.1616 30.8003 22.2915 31.1968 22.2915ZM59.7026 15.3701C59.7026 16.4229 59.9009 17.3867 60.2974 18.2617C60.7007 19.1367 61.2476 19.8374 61.938 20.3638C62.6353 20.8901 63.4214 21.1533 64.2964 21.1533H66.1729C65.2227 20.4629 64.5254 19.6084 64.0811 18.5898C63.6367 17.5713 63.4248 16.4639 63.4453 15.2676C63.459 14.3789 63.5649 13.5757 63.7632 12.8579C63.9683 12.1401 64.2212 11.5078 64.522 10.9609C64.8228 10.4072 65.1304 9.93555 65.4448 9.5459H63.9067C63.1138 9.5459 62.3994 9.80566 61.7637 10.3252C61.1279 10.8447 60.6255 11.5454 60.2563 12.4272C59.8872 13.3022 59.7026 14.2832 59.7026 15.3701ZM64.8706 15.2983C64.8569 16.269 65.0347 17.168 65.4038 17.9951C65.7729 18.8223 66.3062 19.5435 67.0034 20.1587C67.7075 20.7808 68.5552 21.2661 69.5464 21.6147C70.5444 21.9634 71.6587 22.1445 72.8892 22.1582L74.3452 22.1685C75.0356 22.1753 75.6304 22.1548 76.1294 22.1069C76.6284 22.0659 77.0215 22.0044 77.3086 21.9224C77.7256 21.8198 78.1016 21.6318 78.4365 21.3584C78.7783 21.0918 78.9492 20.7056 78.9492 20.1997C78.9492 19.9946 78.9253 19.8169 78.8774 19.6665C78.8296 19.5161 78.7715 19.3828 78.7031 19.2666C78.6143 19.123 78.6348 19.0239 78.7646 18.9692C79.0928 18.8394 79.3765 18.624 79.6157 18.3232C79.855 18.0225 79.9746 17.6602 79.9746 17.2363C79.9746 16.7578 79.8516 16.3579 79.6055 16.0366C79.4824 15.8726 79.5098 15.7358 79.6875 15.6265C79.9268 15.4897 80.1216 15.2812 80.272 15.001C80.4224 14.7207 80.4976 14.4062 80.4976 14.0576C80.4976 13.8184 80.46 13.5791 80.3848 13.3398C80.3096 13.1006 80.2002 12.916 80.0566 12.7861C79.9199 12.6562 79.9336 12.5195 80.0977 12.376C80.2686 12.2393 80.4019 12.0547 80.4976 11.8223C80.5933 11.583 80.6411 11.313 80.6411 11.0122C80.6411 10.6704 80.5591 10.3594 80.395 10.0791C80.2378 9.79883 80.019 9.57666 79.7388 9.4126C79.4585 9.2417 79.144 9.15625 78.7954 9.15625H75.0527C74.5742 9.15625 74.1914 9.04346 73.9043 8.81787C73.6172 8.58545 73.4736 8.27441 73.4736 7.88477C73.4736 7.52246 73.5625 7.10205 73.7402 6.62354C73.918 6.14502 74.123 5.63574 74.3555 5.0957C74.5947 4.55566 74.8032 4.01904 74.981 3.48584C75.1587 2.9458 75.2476 2.43994 75.2476 1.96826C75.2476 1.47607 75.1074 1.09326 74.8271 0.819824C74.5469 0.539551 74.1982 0.399414 73.7812 0.399414C73.3984 0.399414 73.0942 0.522461 72.8687 0.768555C72.6499 1.00781 72.438 1.32568 72.2329 1.72217C71.4468 3.26025 70.5684 4.66162 69.5977 5.92627C68.6338 7.19092 67.7485 8.35645 66.9419 9.42285C66.4839 10.0244 66.1045 10.6157 65.8037 11.1968C65.5029 11.7778 65.2739 12.3965 65.1167 13.0527C64.9663 13.709 64.8843 14.4575 64.8706 15.2983Z" fill="white" fill-opacity="0.7"/>
</svg>
