<svg width="110" height="25" viewBox="0 0 110 25" fill="none" xmlns="http://www.w3.org/2000/svg">
<path d="M17.6731 11.7145H17.6486C19.4274 14.6186 19.8223 17.5835 18.6476 19.1736C17.0578 21.3287 12.8991 20.1389 9.3724 16.5162C5.92029 12.977 4.34291 8.42434 5.76065 6.2058C5.7276 6.2444 5.69719 6.28511 5.66547 6.329C3.9628 8.62845 5.63962 13.6401 9.4159 17.5137C13.1879 21.3855 17.6322 22.6552 19.3375 20.3507C20.6809 18.5303 19.9093 15.0207 17.6731 11.7145ZM16.8358 10.2881C17.2843 10.8184 17.422 11.4379 17.1459 11.6634C16.8692 11.8927 16.2771 11.6455 15.8279 11.1109C15.3798 10.5752 15.2408 9.96021 15.5175 9.73336C15.7952 9.50968 16.3824 9.75425 16.8358 10.2881Z" fill="#FF7300"/>
<path d="M11.091 4.86279C12.4273 5.02143 14.213 5.80589 15.3161 7.01761C13.8748 5.25833 11.9157 4.07119 10.0354 4.00298C6.9853 3.89431 5.27579 6.77411 6.22769 10.4352C6.36118 10.9434 6.53976 11.4428 6.75239 11.9259C7.05695 12.6606 7.47271 13.4094 8.01738 14.1296C8.37721 14.6105 8.77268 15.0534 9.19174 15.4722C8.89764 15.1663 8.61993 14.84 8.35789 14.4992C5.86657 11.1821 6.18419 7.51891 9.19174 6.45974C10.5103 5.99361 12.2048 6.19376 13.7914 6.71039C12.2965 5.68638 10.4871 5.04549 8.48319 5.71414C7.73932 5.96532 7.17898 6.41717 6.7969 7.00836C7.41678 5.46138 8.81128 4.58914 11.091 4.86279Z" fill="#FF7300"/>
<path d="M31.4695 16.5H30.0717L33.2124 7.77273H34.7337L37.8743 16.5H36.4766L34.0092 9.35795H33.9411L31.4695 16.5ZM31.7038 13.0824H36.2379V14.1903H31.7038V13.0824ZM40.3065 7.77273V16.5H39.0323V7.77273H40.3065ZM43.1925 14.2798L43.1839 12.7244H43.4055L46.0135 9.95455H47.5391L44.5646 13.108H44.3643L43.1925 14.2798ZM42.0206 16.5V7.77273H43.2947V16.5H42.0206ZM46.1541 16.5L43.8104 13.3892L44.6882 12.4986L47.718 16.5H46.1541ZM50.6051 16.6449C50.1903 16.6449 49.8153 16.5682 49.4801 16.4148C49.1449 16.2585 48.8793 16.0327 48.6832 15.7372C48.4901 15.4418 48.3935 15.0795 48.3935 14.6506C48.3935 14.2812 48.4645 13.9773 48.6065 13.7386C48.7486 13.5 48.9403 13.3111 49.1818 13.1719C49.4233 13.0327 49.6932 12.9276 49.9915 12.8565C50.2898 12.7855 50.5938 12.7315 50.9034 12.6946C51.2955 12.6491 51.6136 12.6122 51.858 12.5838C52.1023 12.5526 52.2798 12.5028 52.3906 12.4347C52.5014 12.3665 52.5568 12.2557 52.5568 12.1023V12.0724C52.5568 11.7003 52.4517 11.4119 52.2415 11.2074C52.0341 11.0028 51.7244 10.9006 51.3125 10.9006C50.8835 10.9006 50.5455 10.9957 50.2983 11.1861C50.054 11.3736 49.8849 11.5824 49.7912 11.8125L48.5938 11.5398C48.7358 11.142 48.9432 10.821 49.2159 10.5767C49.4915 10.3295 49.8082 10.1506 50.1662 10.0398C50.5241 9.92614 50.9006 9.86932 51.2955 9.86932C51.5568 9.86932 51.8338 9.90057 52.1264 9.96307C52.4219 10.0227 52.6974 10.1335 52.9531 10.2955C53.2116 10.4574 53.4233 10.6889 53.5881 10.9901C53.7528 11.2884 53.8352 11.6761 53.8352 12.1534V16.5H52.5909V15.6051H52.5398C52.4574 15.7699 52.3338 15.9318 52.169 16.0909C52.0043 16.25 51.7926 16.3821 51.5341 16.4872C51.2756 16.5923 50.9659 16.6449 50.6051 16.6449ZM50.8821 15.6222C51.2344 15.6222 51.5355 15.5526 51.7855 15.4134C52.0384 15.2741 52.2301 15.0923 52.3608 14.8679C52.4943 14.6406 52.5611 14.3977 52.5611 14.1392V13.2955C52.5156 13.3409 52.4276 13.3835 52.2969 13.4233C52.169 13.4602 52.0227 13.4929 51.858 13.5213C51.6932 13.5469 51.5327 13.571 51.3764 13.5938C51.2202 13.6136 51.0895 13.6307 50.9844 13.6449C50.7372 13.6761 50.5114 13.7287 50.3068 13.8026C50.1051 13.8764 49.9432 13.983 49.821 14.1222C49.7017 14.2585 49.642 14.4403 49.642 14.6676C49.642 14.983 49.7585 15.2216 49.9915 15.3835C50.2244 15.5426 50.5213 15.6222 50.8821 15.6222ZM56.8065 12.6136V16.5H55.5323V7.77273H56.7894V11.0199H56.8704C57.0238 10.6676 57.2582 10.3878 57.5735 10.1804C57.8888 9.97301 58.3008 9.86932 58.8093 9.86932C59.2582 9.86932 59.6502 9.96165 59.9854 10.1463C60.3235 10.331 60.5849 10.6065 60.7695 10.973C60.957 11.3366 61.0508 11.7912 61.0508 12.3366V16.5H59.7766V12.4901C59.7766 12.0099 59.6531 11.6378 59.4059 11.3736C59.1587 11.1065 58.815 10.973 58.3746 10.973C58.0735 10.973 57.8036 11.0369 57.565 11.1648C57.3292 11.2926 57.1431 11.4801 57.0067 11.7273C56.8732 11.9716 56.8065 12.267 56.8065 12.6136ZM62.7511 16.5V9.95455H63.9826V10.9943H64.0508C64.1701 10.642 64.3803 10.3651 64.6815 10.1634C64.9854 9.95881 65.3292 9.85653 65.7127 9.85653C65.7923 9.85653 65.886 9.85937 65.994 9.86506C66.1048 9.87074 66.1914 9.87784 66.2539 9.88636V11.1051C66.2028 11.0909 66.1119 11.0753 65.9812 11.0582C65.8505 11.0384 65.7198 11.0284 65.5891 11.0284C65.288 11.0284 65.0195 11.0923 64.7837 11.2202C64.5508 11.3452 64.3661 11.5199 64.2298 11.7443C64.0934 11.9659 64.0252 12.2187 64.0252 12.5028V16.5H62.7511ZM69.2028 16.6449C68.788 16.6449 68.413 16.5682 68.0778 16.4148C67.7425 16.2585 67.4769 16.0327 67.2809 15.7372C67.0877 15.4418 66.9911 15.0795 66.9911 14.6506C66.9911 14.2812 67.0621 13.9773 67.2042 13.7386C67.3462 13.5 67.538 13.3111 67.7795 13.1719C68.021 13.0327 68.2908 12.9276 68.5891 12.8565C68.8874 12.7855 69.1914 12.7315 69.5011 12.6946C69.8931 12.6491 70.2113 12.6122 70.4556 12.5838C70.6999 12.5526 70.8775 12.5028 70.9883 12.4347C71.0991 12.3665 71.1545 12.2557 71.1545 12.1023V12.0724C71.1545 11.7003 71.0494 11.4119 70.8391 11.2074C70.6317 11.0028 70.3221 10.9006 69.9102 10.9006C69.4812 10.9006 69.1431 10.9957 68.896 11.1861C68.6516 11.3736 68.4826 11.5824 68.3888 11.8125L67.1914 11.5398C67.3335 11.142 67.5408 10.821 67.8136 10.5767C68.0891 10.3295 68.4059 10.1506 68.7638 10.0398C69.1218 9.92614 69.4982 9.86932 69.8931 9.86932C70.1545 9.86932 70.4315 9.90057 70.7241 9.96307C71.0195 10.0227 71.2951 10.1335 71.5508 10.2955C71.8093 10.4574 72.021 10.6889 72.1857 10.9901C72.3505 11.2884 72.4329 11.6761 72.4329 12.1534V16.5H71.1886V15.6051H71.1374C71.055 15.7699 70.9315 15.9318 70.7667 16.0909C70.6019 16.25 70.3903 16.3821 70.1317 16.4872C69.8732 16.5923 69.5636 16.6449 69.2028 16.6449ZM69.4798 15.6222C69.832 15.6222 70.1332 15.5526 70.3832 15.4134C70.636 15.2741 70.8278 15.0923 70.9585 14.8679C71.092 14.6406 71.1587 14.3977 71.1587 14.1392V13.2955C71.1133 13.3409 71.0252 13.3835 70.8945 13.4233C70.7667 13.4602 70.6204 13.4929 70.4556 13.5213C70.2908 13.5469 70.1303 13.571 69.9741 13.5938C69.8178 13.6136 69.6871 13.6307 69.582 13.6449C69.3349 13.6761 69.109 13.7287 68.9045 13.8026C68.7028 13.8764 68.5408 13.983 68.4187 14.1222C68.2994 14.2585 68.2397 14.4403 68.2397 14.6676C68.2397 14.983 68.3562 15.2216 68.5891 15.3835C68.8221 15.5426 69.119 15.6222 69.4798 15.6222ZM74.2322 16.5V7.77273H75.5064V11.0156H75.5831C75.657 10.8793 75.7635 10.7216 75.9027 10.5426C76.0419 10.3636 76.2351 10.2074 76.4822 10.0739C76.7294 9.9375 77.0561 9.86932 77.4624 9.86932C77.9908 9.86932 78.4624 10.0028 78.8771 10.2699C79.2919 10.5369 79.6172 10.9219 79.853 11.4247C80.0916 11.9276 80.2109 12.5327 80.2109 13.2401C80.2109 13.9474 80.093 14.554 79.8572 15.0597C79.6214 15.5625 79.2976 15.9503 78.8857 16.223C78.4737 16.4929 78.0036 16.6278 77.4751 16.6278C77.0774 16.6278 76.7521 16.5611 76.4993 16.4276C76.2493 16.294 76.0533 16.1378 75.9112 15.9588C75.7692 15.7798 75.6598 15.6207 75.5831 15.4815H75.4766V16.5H74.2322ZM75.4808 13.2273C75.4808 13.6875 75.5476 14.0909 75.6811 14.4375C75.8146 14.7841 76.0078 15.0554 76.2607 15.2514C76.5135 15.4446 76.8232 15.5412 77.1896 15.5412C77.5703 15.5412 77.8885 15.4403 78.1442 15.2386C78.3999 15.0341 78.593 14.7571 78.7237 14.4077C78.8572 14.0582 78.924 13.6648 78.924 13.2273C78.924 12.7955 78.8587 12.4077 78.728 12.0639C78.6001 11.7202 78.407 11.4489 78.1484 11.25C77.8928 11.0511 77.5732 10.9517 77.1896 10.9517C76.8203 10.9517 76.5078 11.0469 76.2521 11.2372C75.9993 11.4276 75.8075 11.6932 75.6768 12.0341C75.5462 12.375 75.4808 12.7727 75.4808 13.2273ZM83.5465 16.6449C83.1317 16.6449 82.7567 16.5682 82.4215 16.4148C82.0863 16.2585 81.8207 16.0327 81.6246 15.7372C81.4315 15.4418 81.3349 15.0795 81.3349 14.6506C81.3349 14.2812 81.4059 13.9773 81.5479 13.7386C81.69 13.5 81.8817 13.3111 82.1232 13.1719C82.3647 13.0327 82.6346 12.9276 82.9329 12.8565C83.2312 12.7855 83.5352 12.7315 83.8448 12.6946C84.2369 12.6491 84.555 12.6122 84.7994 12.5838C85.0437 12.5526 85.2212 12.5028 85.332 12.4347C85.4428 12.3665 85.4982 12.2557 85.4982 12.1023V12.0724C85.4982 11.7003 85.3931 11.4119 85.1829 11.2074C84.9755 11.0028 84.6658 10.9006 84.2539 10.9006C83.8249 10.9006 83.4869 10.9957 83.2397 11.1861C82.9954 11.3736 82.8263 11.5824 82.7326 11.8125L81.5352 11.5398C81.6772 11.142 81.8846 10.821 82.1573 10.5767C82.4329 10.3295 82.7496 10.1506 83.1076 10.0398C83.4656 9.92614 83.842 9.86932 84.2369 9.86932C84.4982 9.86932 84.7752 9.90057 85.0678 9.96307C85.3633 10.0227 85.6388 10.1335 85.8945 10.2955C86.1531 10.4574 86.3647 10.6889 86.5295 10.9901C86.6942 11.2884 86.7766 11.6761 86.7766 12.1534V16.5H85.5323V15.6051H85.4812C85.3988 15.7699 85.2752 15.9318 85.1104 16.0909C84.9457 16.25 84.734 16.3821 84.4755 16.4872C84.217 16.5923 83.9073 16.6449 83.5465 16.6449ZM83.8235 15.6222C84.1758 15.6222 84.4769 15.5526 84.7269 15.4134C84.9798 15.2741 85.1715 15.0923 85.3022 14.8679C85.4357 14.6406 85.5025 14.3977 85.5025 14.1392V13.2955C85.457 13.3409 85.369 13.3835 85.2383 13.4233C85.1104 13.4602 84.9641 13.4929 84.7994 13.5213C84.6346 13.5469 84.4741 13.571 84.3178 13.5938C84.1616 13.6136 84.0309 13.6307 83.9258 13.6449C83.6786 13.6761 83.4528 13.7287 83.2482 13.8026C83.0465 13.8764 82.8846 13.983 82.7624 14.1222C82.6431 14.2585 82.5835 14.4403 82.5835 14.6676C82.5835 14.983 82.6999 15.2216 82.9329 15.3835C83.1658 15.5426 83.4627 15.6222 83.8235 15.6222ZM91.7518 16.5V7.77273H93.0259V11.0156H93.1026C93.1765 10.8793 93.283 10.7216 93.4222 10.5426C93.5614 10.3636 93.7546 10.2074 94.0018 10.0739C94.2489 9.9375 94.5756 9.86932 94.9819 9.86932C95.5103 9.86932 95.9819 10.0028 96.3967 10.2699C96.8114 10.5369 97.1367 10.9219 97.3725 11.4247C97.6112 11.9276 97.7305 12.5327 97.7305 13.2401C97.7305 13.9474 97.6126 14.554 97.3768 15.0597C97.141 15.5625 96.8171 15.9503 96.4052 16.223C95.9933 16.4929 95.5231 16.6278 94.9947 16.6278C94.5969 16.6278 94.2717 16.5611 94.0188 16.4276C93.7688 16.294 93.5728 16.1378 93.4308 15.9588C93.2887 15.7798 93.1793 15.6207 93.1026 15.4815H92.9961V16.5H91.7518ZM93.0004 13.2273C93.0004 13.6875 93.0671 14.0909 93.2006 14.4375C93.3342 14.7841 93.5273 15.0554 93.7802 15.2514C94.033 15.4446 94.3427 15.5412 94.7092 15.5412C95.0898 15.5412 95.408 15.4403 95.6637 15.2386C95.9194 15.0341 96.1126 14.7571 96.2433 14.4077C96.3768 14.0582 96.4435 13.6648 96.4435 13.2273C96.4435 12.7955 96.3782 12.4077 96.2475 12.0639C96.1197 11.7202 95.9265 11.4489 95.668 11.25C95.4123 11.0511 95.0927 10.9517 94.7092 10.9517C94.3398 10.9517 94.0273 11.0469 93.7717 11.2372C93.5188 11.4276 93.3271 11.6932 93.1964 12.0341C93.0657 12.375 93.0004 12.7727 93.0004 13.2273ZM101.918 16.6321C101.305 16.6321 100.769 16.4915 100.312 16.2102C99.8544 15.929 99.4993 15.5355 99.2464 15.0298C98.9936 14.5241 98.8672 13.9332 98.8672 13.2571C98.8672 12.5781 98.9936 11.9844 99.2464 11.4759C99.4993 10.9673 99.8544 10.5724 100.312 10.2912C100.769 10.0099 101.305 9.86932 101.918 9.86932C102.532 9.86932 103.067 10.0099 103.525 10.2912C103.982 10.5724 104.337 10.9673 104.59 11.4759C104.843 11.9844 104.969 12.5781 104.969 13.2571C104.969 13.9332 104.843 14.5241 104.59 15.0298C104.337 15.5355 103.982 15.929 103.525 16.2102C103.067 16.4915 102.532 16.6321 101.918 16.6321ZM101.923 15.5625C102.32 15.5625 102.65 15.4574 102.911 15.2472C103.173 15.0369 103.366 14.7571 103.491 14.4077C103.619 14.0582 103.683 13.6733 103.683 13.2528C103.683 12.8352 103.619 12.4517 103.491 12.1023C103.366 11.75 103.173 11.4673 102.911 11.2543C102.65 11.0412 102.32 10.9347 101.923 10.9347C101.522 10.9347 101.19 11.0412 100.925 11.2543C100.664 11.4673 100.469 11.75 100.342 12.1023C100.217 12.4517 100.154 12.8352 100.154 13.2528C100.154 13.6733 100.217 14.0582 100.342 14.4077C100.469 14.7571 100.664 15.0369 100.925 15.2472C101.19 15.4574 101.522 15.5625 101.923 15.5625ZM109.447 9.95455V10.9773H105.872V9.95455H109.447ZM106.831 8.38636H108.105V14.5781C108.105 14.8253 108.142 15.0114 108.216 15.1364C108.289 15.2585 108.385 15.3423 108.501 15.3878C108.62 15.4304 108.75 15.4517 108.889 15.4517C108.991 15.4517 109.081 15.4446 109.157 15.4304C109.234 15.4162 109.294 15.4048 109.336 15.3963L109.566 16.4489C109.493 16.4773 109.387 16.5057 109.251 16.5341C109.115 16.5653 108.944 16.5824 108.74 16.5852C108.404 16.5909 108.092 16.5312 107.802 16.4062C107.512 16.2812 107.278 16.0881 107.099 15.8267C106.92 15.5653 106.831 15.2372 106.831 14.8423V8.38636Z" fill="white"/>
</svg>