<svg width="53" height="15" viewBox="0 0 53 15" fill="none" xmlns="http://www.w3.org/2000/svg">
<path d="M10.6867 6.56751H10.666C12.166 9.03901 12.499 11.5623 11.5084 12.9155C10.1678 14.7495 6.66095 13.737 3.68706 10.6539C0.776039 7.64193 -0.554094 3.7675 0.641426 1.87946C0.613554 1.91231 0.587911 1.94696 0.561165 1.98431C-0.874628 3.94121 0.539362 8.20625 3.72374 11.5029C6.90452 14.7979 10.6522 15.8784 12.0902 13.9172C13.2231 12.368 12.5724 9.38124 10.6867 6.56751ZM9.98063 5.35359C10.3588 5.80496 10.4749 6.33215 10.2421 6.52409C10.0088 6.71917 9.50948 6.50878 9.13073 6.05382C8.75284 5.59795 8.6356 5.07458 8.86896 4.88152C9.10315 4.69116 9.5983 4.8993 9.98063 5.35359Z" fill="black"/>
<path d="M5.13775 0.734262C6.26459 0.869267 7.77043 1.53687 8.70058 2.56808C7.4852 1.07087 5.83315 0.0605857 4.2476 0.00253344C1.67558 -0.0899451 0.23403 2.36085 1.03672 5.47655C1.14929 5.90901 1.29988 6.33405 1.47918 6.74514C1.736 7.37044 2.08659 8.00767 2.54589 8.62059C2.84932 9.02988 3.18281 9.40677 3.53618 9.76319C3.28818 9.50285 3.054 9.22519 2.83304 8.93515C0.732209 6.11219 1.00005 2.9947 3.53618 2.09331C4.64811 1.69662 6.07699 1.86696 7.41485 2.30662C6.15425 1.43516 4.62853 0.889743 2.9387 1.45879C2.31142 1.67255 1.83891 2.05709 1.51672 2.56021C2.03944 1.24368 3.21536 0.501378 5.13775 0.734262ZM14.8964 4.62016C14.9502 4.62016 15.0167 4.63794 15.0903 4.67956C15.1427 4.71917 15.2012 4.75674 15.2575 4.79432C15.4009 4.57674 15.4759 4.46176 15.4759 4.44601C15.4759 4.37288 15.4409 4.30605 15.3758 4.24777C15.306 4.19242 15.2357 4.16474 15.1618 4.16474C14.9389 4.16474 14.729 4.25655 14.5295 4.44376C14.3367 4.62399 14.2412 4.83055 14.2412 5.04768C14.2412 5.14308 14.2992 5.21126 14.4228 5.25064C14.5165 5.27156 14.6164 5.29969 14.7138 5.32669C14.6164 5.38047 14.5193 5.44797 14.4357 5.5283C14.3315 5.63405 14.2815 5.73306 14.2901 5.81631V5.84893C14.6346 5.53977 15.0401 5.38047 15.4999 5.36539C15.6136 5.21283 15.7101 5.06793 15.7968 4.92955C15.1372 4.92955 14.7538 4.86902 14.6346 4.74324C14.7455 4.65751 14.8318 4.62016 14.8964 4.62016ZM18.6247 4.60959C18.6247 4.44871 18.5867 4.28332 18.5155 4.11682C18.449 3.95301 18.35 3.81823 18.2358 3.72148L17.9423 4.23787C18.0024 4.28917 18.0639 4.37963 18.1379 4.50586C18.2132 4.63231 18.2507 4.72884 18.2507 4.80152C18.2507 4.81232 18.2471 4.81997 18.2421 4.81997H17.3851H17.2163H17.1217C17.0199 4.81997 16.9669 4.79094 16.955 4.73537C16.9148 4.55828 16.8753 4.2678 16.8483 3.85806C16.8279 3.55722 16.8058 3.25458 16.7868 2.94857C16.7504 2.9758 16.6933 3.055 16.5962 3.17696C16.4955 3.30296 16.4414 3.38081 16.4414 3.40444L16.6193 5.36562H17.2163H17.3851H18.4761C18.5729 5.36562 18.6247 5.11226 18.6247 4.60959ZM18.0292 5.79876C17.9048 5.68873 17.8374 5.63383 17.8118 5.63383C17.7922 5.63383 17.7232 5.68873 17.6079 5.79876C17.4946 5.91014 17.4333 5.98011 17.4333 5.99474C17.4333 6.01499 17.4896 6.07012 17.6027 6.1635C17.7177 6.24967 17.7894 6.29625 17.8203 6.30075C18.0818 6.1536 18.2129 6.05527 18.2129 6.00217C18.2129 5.98011 18.1541 5.91014 18.0292 5.79876ZM25.8712 3.34054C25.7132 3.24671 25.6216 3.17696 25.6086 3.13015C25.587 3.08875 25.5793 3.03115 25.5753 2.96477L25.5466 2.94002C25.4374 3.05928 25.3175 3.25413 25.1847 3.52617C25.2412 3.59052 25.2911 3.6461 25.3458 3.6794C25.3736 3.75478 25.4087 3.93231 25.4515 4.20795C25.4963 4.48628 25.517 4.67146 25.517 4.76462C25.517 4.78082 25.5137 4.80107 25.5018 4.81997H25.1289C25.0455 4.81997 25.002 4.81434 24.9943 4.81209C24.9464 4.80669 24.9228 4.77924 24.9126 4.72884C24.8969 4.60959 24.8722 4.30942 24.8431 3.83218C24.8182 3.45484 24.7756 3.15671 24.7184 2.93665L24.7008 2.9227L24.3144 3.46519L24.5187 4.81997H23.9924H23.8986C23.7529 4.81997 23.5499 4.67709 23.2915 4.39695C23.1159 4.19197 22.9373 3.98879 22.7603 3.78943L23.9059 3.55722C23.9666 3.36866 24.0136 3.19113 24.0526 3.01968C24.01 3.01202 23.5064 3.1153 22.5425 3.32096C22.4483 3.56622 22.3817 3.81216 22.3338 4.06282L23.1262 4.81997H22.3386H21.8679C21.9288 4.68361 21.9807 4.55311 22.0383 4.42643C22.1071 4.24372 22.1413 4.11299 22.1413 4.02996V3.73768C21.9892 3.73768 21.8116 3.82768 21.6199 3.99981C21.4472 4.14697 21.3162 4.29907 21.2235 4.46401C21.1534 4.61994 21.1013 4.73537 21.0743 4.81997H20.9052H20.8092C20.6017 4.81997 20.4445 4.74527 20.3275 4.60036C20.2291 4.45006 20.1245 4.2975 20.0269 4.14854C19.9996 4.18049 19.9466 4.2633 19.8638 4.39875C19.7789 4.53376 19.7408 4.60959 19.7408 4.62826C19.7408 4.62826 19.7916 4.70184 19.8831 4.82582C19.9827 4.95272 20.0329 5.04408 20.0329 5.10416C20.0329 5.21891 19.8906 5.36652 19.6103 5.55552C19.3353 5.74003 19.1215 5.83273 18.9753 5.83273C18.8871 5.83273 18.7798 5.79876 18.6559 5.73126C18.5351 5.66443 18.4805 5.62865 18.4882 5.62865C18.4758 5.62865 18.4672 5.63293 18.4672 5.63293V5.702C18.5563 5.80438 18.7177 5.91351 18.9566 6.03164C19.1927 6.1455 19.3748 6.20557 19.4945 6.20557C19.6807 6.20557 19.8462 6.09779 19.9996 5.87999C20.1082 5.69863 20.2136 5.5148 20.3151 5.33006L20.3397 5.30126C20.4219 5.34559 20.4897 5.36539 20.538 5.36539H20.6817H20.9052H20.909C20.9214 5.36539 20.9609 5.42412 21.0238 5.54787C21.1013 5.702 21.1769 5.81631 21.2392 5.89169C21.3402 6.01499 21.4472 6.07574 21.5515 6.07574C21.8295 6.07574 22.0397 5.84556 22.187 5.36539H23.1414L23.3487 5.0236L23.7141 5.36539H24.1279H24.3488L24.5238 5.0362C24.5264 5.10011 24.5306 5.15973 24.5386 5.22589C24.5494 5.31926 24.573 5.36539 24.6138 5.36539H24.9766H25.1289H25.6464C25.6916 5.34176 25.7159 5.32399 25.7227 5.31386C25.7488 5.28461 25.775 5.18426 25.8123 5.01258C25.8538 4.84585 25.867 4.73537 25.8602 4.69419L25.8059 4.02231L26.1994 3.51469C26.1056 3.47554 26.0008 3.41434 25.8712 3.34054ZM21.8395 5.53955H21.7197C21.6345 5.53955 21.5515 5.5121 21.4726 5.45247C21.3928 5.39734 21.3297 5.32646 21.2952 5.24411C21.3928 5.24411 21.4941 5.26661 21.6022 5.31004C21.7197 5.36539 21.8005 5.43289 21.8395 5.5049V5.53955ZM21.6822 4.57674C21.5782 4.61994 21.4643 4.65751 21.3597 4.70184H21.3253C21.5324 4.43701 21.704 4.26172 21.8251 4.18274C21.8356 4.2138 21.8395 4.25295 21.8395 4.2975C21.8395 4.42755 21.7851 4.52386 21.6822 4.57674ZM27.8803 3.23793C28.1089 3.37586 28.2512 3.44382 28.2901 3.44382C28.313 3.44382 28.3589 3.40106 28.4452 3.30274C28.5183 3.21453 28.5672 3.15108 28.5924 3.11103L28.1709 2.88917C27.9862 3.02868 27.8993 3.09708 27.9059 3.09708C27.8443 3.09708 27.7192 3.02868 27.5243 2.88917C27.3568 3.07143 27.2575 3.18191 27.2291 3.22421C27.408 3.33694 27.5442 3.40444 27.645 3.44022C27.7635 3.32681 27.8386 3.25931 27.8803 3.23793ZM30.1444 5.81878C30.0811 5.88786 30.0387 5.92026 30.0158 5.92026C29.976 5.92026 29.8542 5.84893 29.6552 5.70763C29.5607 5.82103 29.4687 5.93624 29.3886 6.05122C29.4687 6.1221 29.5989 6.2004 29.7717 6.29445C29.8741 6.18757 29.9487 6.11219 29.9983 6.06652L30.3777 6.29445C30.4648 6.22515 30.5615 6.10994 30.667 5.95244L30.2647 5.70223C30.2506 5.71775 30.2089 5.75128 30.1444 5.81878ZM30.2272 4.25655C30.3708 4.45028 30.4721 4.63501 30.535 4.82019H29.4963H29.3255H29.2474C29.1125 4.82019 29.0364 4.77947 29.0064 4.70206C28.9576 4.55851 28.9031 4.3263 28.8532 3.99734C28.7884 3.61055 28.7409 3.36034 28.7069 3.24266L28.6818 3.22826L28.381 3.7406C28.3911 3.79078 28.4095 3.83848 28.4295 3.89181C28.2512 3.99734 28.0648 4.09994 27.8818 4.20412C27.7556 4.28197 27.6622 4.37985 27.6024 4.49056C27.5382 4.59946 27.4733 4.80174 27.3996 5.09448L28.3132 5.25424C28.3558 5.26414 28.4119 5.20811 28.4821 5.09268C28.5582 4.9489 28.6079 4.8715 28.6317 4.85417C28.6683 4.9642 28.7014 5.06635 28.7347 5.17143C28.7884 5.30149 28.8746 5.36562 28.9808 5.36562H29.3255H29.4963H30.7901C30.8616 4.98423 30.9007 4.72457 30.9007 4.58506C30.9007 4.34588 30.7742 4.07249 30.5101 3.76873L30.2272 4.25655ZM28.0692 4.53713C28.1422 4.47391 28.2062 4.42778 28.2616 4.4082C28.3633 4.30965 28.4452 4.22775 28.4869 4.16092L28.5783 4.60486L28.0692 4.53713ZM31.7891 3.6461L31.6119 4.2201C31.7117 4.23157 31.8319 4.30965 31.9805 4.45028C32.1341 4.59204 32.2069 4.70792 32.2069 4.79859C32.2069 4.79859 32.2069 4.81074 32.2047 4.81997H31.2218L31.1708 5.36539H32.3854C32.5002 5.36539 32.5505 5.17143 32.5505 4.79072C32.5505 4.25295 32.2963 3.87246 31.7891 3.6461ZM39.5685 3.34054C39.4082 3.24671 39.3198 3.17696 39.3006 3.13015C39.2842 3.08875 39.2741 3.03115 39.2703 2.96477L39.2405 2.94002C39.1324 3.05928 39.0141 3.25413 38.8837 3.52617C38.9375 3.59052 38.9868 3.6461 39.0373 3.6794C39.0695 3.75478 39.1057 3.93231 39.1483 4.20795C39.1909 4.48628 39.2134 4.67146 39.2134 4.76462C39.2134 4.78082 39.2048 4.80107 39.1997 4.81997H38.849H38.7208C38.56 4.81997 38.4812 4.71557 38.4812 4.50586C38.4847 4.49213 38.4847 4.46963 38.4847 4.4343C38.4847 4.39875 38.4847 4.37918 38.4812 4.35735C38.4812 4.27005 38.4779 4.2003 38.4653 4.14854C38.4242 4.17104 38.3596 4.23742 38.2696 4.35308C38.1782 4.46176 38.131 4.54163 38.131 4.58326C38.131 4.60036 38.1378 4.62826 38.1488 4.66764C38.1563 4.70769 38.1619 4.73537 38.1619 4.75269C38.1619 4.77497 38.1515 4.79859 38.1378 4.81997C37.9083 4.80669 37.7783 4.80669 37.76 4.81997C37.8132 4.58484 37.8401 4.36658 37.8401 4.16069C37.8401 4.14359 37.8359 4.12334 37.8269 4.10579C37.7719 4.14854 37.7006 4.2345 37.6073 4.35735C37.5117 4.49686 37.4612 4.58889 37.4612 4.63501C37.4612 4.72637 37.4477 4.78712 37.4164 4.81997H37.2174H37.0126H36.9717C37.0688 4.52948 37.124 4.33823 37.124 4.24755L37.1119 4.11862C37.0585 4.14157 36.9887 4.2075 36.8879 4.31798C36.793 4.42755 36.742 4.50788 36.742 4.55311C36.742 4.64784 36.7204 4.73537 36.6822 4.81997H36.2658H36.1089H35.9416C35.9813 4.75674 36.0155 4.69959 36.0471 4.64199C36.0939 4.56886 36.1166 4.50946 36.1166 4.46176C36.1166 4.32788 36.0414 4.2075 35.8933 4.10579C35.7574 4.01511 35.6194 3.96696 35.4758 3.96696C35.2403 3.96696 35.0671 4.02231 34.9548 4.14157C34.8936 4.2075 34.8078 4.36658 34.6932 4.61994C34.8078 4.60464 34.8654 4.60036 34.8773 4.60036C35.0362 4.60036 35.1651 4.67146 35.2694 4.81997H34.6326H34.4251H34.3338C34.2439 4.24192 34.0848 3.95481 33.8575 3.95481C33.711 3.95481 33.5612 4.09747 33.4144 4.37288C33.2844 4.62286 33.218 4.82582 33.218 4.984C33.218 5.13183 33.2999 5.23309 33.4744 5.29024C33.4963 5.29946 33.6406 5.32736 33.9094 5.37102C33.7907 5.48802 33.6406 5.5958 33.4669 5.68918C33.2697 5.78886 33.0982 5.84556 32.9464 5.84556C32.9033 5.84556 32.8327 5.82868 32.7345 5.79876C32.635 5.77738 32.5657 5.76073 32.5141 5.76073C32.4999 5.76073 32.4799 5.77288 32.4664 5.77918V5.82868C32.5505 5.92476 32.6897 6.01207 32.8835 6.08407C33.0691 6.15382 33.2341 6.18712 33.3714 6.18712C33.5431 6.18712 33.7218 6.08924 33.9054 5.89169C34.0509 5.73823 34.1641 5.56137 34.2554 5.36539H34.4251H34.6326H35.3262C35.4021 5.25064 35.4533 5.17121 35.4842 5.11226C35.5499 5.22161 35.602 5.30824 35.6314 5.36539H36.1089H36.2658H36.5522C36.5836 5.36539 36.618 5.34176 36.6551 5.30126C36.6917 5.25829 36.7171 5.23466 36.7327 5.22589C36.7603 5.27471 36.7734 5.32151 36.7747 5.36539H37.0126H37.2174H37.3738C37.3835 5.36539 37.4014 5.34964 37.427 5.31926C37.4612 5.29024 37.4749 5.27134 37.4872 5.27134C37.5117 5.27134 37.5446 5.30126 37.5892 5.36539H38.2614C38.3071 5.30126 38.3393 5.25401 38.3622 5.22589C38.3918 5.28461 38.4148 5.33006 38.4291 5.36539H38.671H38.849H39.3376C39.3882 5.34176 39.412 5.32399 39.4195 5.31386C39.4433 5.28461 39.4687 5.18426 39.5069 5.01258C39.5435 4.84585 39.5601 4.73537 39.5561 4.69419L39.4978 4.02231L39.8893 3.51469C39.8006 3.47554 39.694 3.41434 39.5685 3.34054ZM33.8302 4.81997C33.6839 4.81997 33.5872 4.76754 33.5285 4.66764C33.5349 4.65999 33.5349 4.65234 33.5285 4.64536C33.5285 4.62286 33.5459 4.58889 33.5925 4.54456C33.6371 4.49686 33.6711 4.47481 33.6969 4.47481C33.7443 4.47481 33.7975 4.52386 33.8456 4.60036C33.8478 4.60959 33.8785 4.67146 33.9328 4.79072C33.9006 4.81074 33.8644 4.81997 33.8302 4.81997ZM40.3068 3.79663L40.5366 5.40409C40.7297 5.18358 40.8215 4.89467 40.8215 4.55851C40.8215 4.26195 40.7784 3.79078 40.6787 3.1423C40.4927 3.39274 40.3706 3.61212 40.3068 3.79663ZM42.7341 3.23793C42.9629 3.37586 43.107 3.44382 43.1461 3.44382C43.1648 3.44382 43.2187 3.40106 43.3036 3.30274C43.3747 3.21453 43.4288 3.15108 43.4515 3.11103L43.0269 2.88917C42.8471 3.02868 42.7564 3.09708 42.7654 3.09708C42.7049 3.09708 42.5765 3.02868 42.3805 2.88917C42.2179 3.07143 42.1166 3.18191 42.0833 3.22421C42.2638 3.33694 42.4061 3.40444 42.5052 3.44022C42.6233 3.32681 42.6994 3.25931 42.7341 3.23793ZM45.3939 4.24777C45.1962 4.09792 44.9982 3.93794 44.8054 3.77638C45.2774 3.63462 45.6349 3.52662 45.8732 3.45417C45.9363 3.25773 45.9833 3.07143 46.0211 2.90582L44.4309 3.37046C44.4053 3.48184 44.3735 3.59075 44.3505 3.69785C44.3095 3.83578 44.2943 3.94401 44.2943 4.02254C44.2943 4.05112 44.3534 4.13144 44.4759 4.25655C44.5953 4.3803 44.6729 4.44376 44.708 4.44376C44.7464 4.44376 44.7782 4.42238 44.7937 4.38278L45.3551 4.82019H44.3534H44.1001C43.9719 4.82019 43.8915 4.77969 43.8606 4.70206C43.8163 4.55851 43.7629 4.3263 43.7051 3.99711C43.6459 3.61055 43.5971 3.36079 43.5656 3.24266L43.5446 3.22826L43.239 3.7406C43.2458 3.79078 43.2661 3.83848 43.2884 3.89181C43.107 3.99711 42.9221 4.10017 42.7383 4.20457C42.6145 4.28175 42.516 4.37963 42.454 4.49056C42.4 4.59946 42.33 4.80152 42.2574 5.09425L43.1651 5.25424C43.2112 5.26391 43.2688 5.20788 43.3436 5.09268C43.4168 4.9489 43.4654 4.87127 43.4928 4.85417C43.5248 4.9642 43.5565 5.06613 43.5892 5.17143C43.6483 5.30149 43.7333 5.36584 43.8401 5.36584H44.0963H44.3534H45.666C45.7768 5.02405 45.8302 4.82627 45.8302 4.77519C45.8302 4.67461 45.6808 4.49731 45.3939 4.24777ZM42.9296 4.53713C43.0031 4.47413 43.0666 4.428 43.1187 4.40798C43.2238 4.30988 43.3023 4.2282 43.3436 4.16092L43.4354 4.60486L42.9296 4.53713ZM49.4526 3.66388L49.8754 3.87988C50.0445 3.76333 50.1517 3.65465 50.1861 3.55137L49.7565 3.30724C49.7081 3.35201 49.6616 3.39251 49.6174 3.43279C49.5382 3.49962 49.4989 3.53314 49.4835 3.53314C49.4336 3.53314 49.3008 3.45889 49.1004 3.31826C48.9433 3.45889 48.8382 3.5705 48.7791 3.64587C49.0404 3.79235 49.1783 3.87246 49.2151 3.87246C49.2096 3.87246 49.2849 3.80046 49.4526 3.66388ZM49.2818 3.26853C49.3743 3.34166 49.4336 3.38441 49.4427 3.38441C49.4727 3.38441 49.5292 3.34864 49.6119 3.27664C49.6856 3.21363 49.7284 3.16188 49.7468 3.1324C49.5729 2.95667 49.4714 2.86577 49.4427 2.86149C49.2469 3.01202 49.1494 3.10428 49.1494 3.13825C49.1494 3.15086 49.1902 3.19586 49.2818 3.26853ZM51.5075 3.34009C51.3493 3.24603 51.2586 3.17628 51.2418 3.1297C51.2227 3.0883 51.2165 3.0307 51.2147 2.96432L51.1856 2.93957C51.0792 3.0595 50.9609 3.25436 50.8257 3.52572C50.878 3.59007 50.9294 3.64565 50.9775 3.67895C51.0108 3.755 51.0459 3.93186 51.0922 4.20817C51.135 4.48583 51.1569 4.67169 51.1569 4.76439C51.1569 4.78037 51.1487 4.80062 51.1412 4.82019H50.7928H50.6617C50.5026 4.82019 50.4258 4.71579 50.4258 4.50541C50.4304 4.49191 50.4304 4.46918 50.4304 4.43453C50.4304 4.39875 50.4304 4.37873 50.4258 4.3569C50.4258 4.2696 50.4156 4.20052 50.4066 4.14877C50.3658 4.17127 50.2998 4.23697 50.2104 4.35263C50.121 4.46176 50.0771 4.54096 50.0771 4.58326C50.0771 4.60014 50.0798 4.62826 50.0928 4.66674C50.1018 4.70792 50.1034 4.73537 50.1034 4.75292C50.1034 4.77452 50.0983 4.79882 50.0798 4.82019C49.8492 4.80624 49.7205 4.80624 49.6998 4.82019C49.7565 4.58506 49.7843 4.3668 49.7843 4.16024C49.7843 4.14877 49.7823 4.12964 49.7695 4.10759C49.7141 4.15439 49.6464 4.23697 49.5543 4.3569C49.4528 4.49686 49.4032 4.58844 49.4032 4.63456C49.4032 4.72569 49.3886 4.78712 49.3601 4.82019H49.1653H48.9589H48.9141C49.013 4.52948 49.0635 4.33823 49.0635 4.24777L49.0538 4.11794C49.004 4.14112 48.93 4.20705 48.8312 4.31753C48.7356 4.42665 48.686 4.50788 48.686 4.55311C48.686 4.64806 48.6635 4.73537 48.6193 4.82019H48.223H48.1303C47.9222 4.82019 47.7609 4.74527 47.643 4.60014C47.5453 4.44961 47.444 4.2975 47.3447 4.14877C47.3171 4.18049 47.2608 4.26352 47.1818 4.39875C47.1 4.53376 47.0569 4.60959 47.0569 4.62826C47.0569 4.62826 47.1081 4.70206 47.201 4.82605C47.3003 4.95295 47.3484 5.04363 47.3484 5.10393C47.3484 5.21891 47.2081 5.36652 46.9318 5.55552C46.6529 5.74003 46.4426 5.83296 46.2954 5.83296C46.2027 5.83296 46.095 5.79898 45.9767 5.73148C45.8542 5.66443 45.7999 5.62865 45.8081 5.62865C45.792 5.62865 45.7816 5.63293 45.7816 5.63293V5.70223C45.8732 5.80461 46.0387 5.91374 46.2755 6.03164C46.5094 6.14572 46.6893 6.20557 46.8184 6.20557C46.9991 6.20557 47.1695 6.09779 47.3248 5.87954C47.4263 5.69795 47.5334 5.5148 47.6327 5.32961L47.6611 5.30081C47.745 5.34582 47.8092 5.36494 47.8556 5.36494H48.0515H48.223H48.4953C48.5271 5.36494 48.5553 5.34176 48.5946 5.30081C48.6317 5.25761 48.6582 5.23421 48.6716 5.22589C48.7043 5.27426 48.7146 5.32106 48.7182 5.36494H48.9589H49.1653H49.3149C49.3264 5.36494 49.3493 5.34919 49.3749 5.31926C49.4032 5.29046 49.4226 5.27156 49.4336 5.27156C49.4537 5.27156 49.4857 5.30081 49.5294 5.36494H50.2067C50.2497 5.30081 50.2861 5.25379 50.3066 5.22589C50.3382 5.28416 50.3602 5.32961 50.3739 5.36494H50.6098H50.7928H51.2827C51.3295 5.34176 51.3551 5.32331 51.3586 5.31341C51.382 5.28416 51.4177 5.18381 51.4522 5.01213C51.4879 4.84607 51.502 4.73537 51.4967 4.69374L51.4405 4.02186L51.8344 3.51424C51.7362 3.47577 51.632 3.41434 51.5075 3.34009ZM52.6235 3.14185C52.4368 3.39251 52.3126 3.61145 52.2492 3.79618L52.4741 5.40409C52.6694 5.18358 52.7669 4.89467 52.7669 4.55851C52.7669 4.26127 52.7182 3.79078 52.6235 3.14185ZM15.7078 9.73123C15.6032 9.67521 15.4408 9.62188 15.2256 9.57283C15.0107 9.52198 14.8747 9.4736 14.8137 9.42567C14.7726 9.39057 14.7511 9.34354 14.7511 9.29157C14.7511 9.23577 14.7726 9.18829 14.8215 9.15656C14.8965 9.10121 15.0008 9.07758 15.129 9.07758C15.2485 9.07758 15.3453 9.10121 15.4049 9.15274C15.4678 9.19999 15.5067 9.28234 15.5246 9.39507L15.9756 9.3791C15.9668 9.17254 15.8931 9.01368 15.7536 8.89195C15.6134 8.7682 15.401 8.70767 15.129 8.70767C14.9583 8.70767 14.8137 8.7331 14.6976 8.78642C14.5738 8.83615 14.4822 8.9122 14.4196 9.00603C14.3534 9.10549 14.3216 9.20786 14.3216 9.32149C14.3216 9.49385 14.3867 9.64438 14.5274 9.76184C14.6242 9.84666 14.7914 9.92137 15.0297 9.97672C15.2151 10.0246 15.337 10.0559 15.3856 10.0768C15.4634 10.1036 15.5155 10.1365 15.55 10.1711C15.5792 10.2074 15.5919 10.251 15.5919 10.3046C15.5919 10.3802 15.5602 10.4504 15.4852 10.5118C15.4118 10.5757 15.3042 10.6004 15.1619 10.6004C15.0198 10.6004 14.9147 10.5712 14.8361 10.5048C14.7566 10.4335 14.7056 10.33 14.6766 10.1824L14.2414 10.2267C14.2725 10.4724 14.3603 10.6592 14.5123 10.7892C14.6626 10.9168 14.8747 10.9836 15.1561 10.9836C15.3453 10.9836 15.5067 10.956 15.6314 10.8997C15.7627 10.8493 15.8603 10.7652 15.932 10.6562C16.0035 10.5476 16.0391 10.4294 16.0391 10.3046C16.0391 10.163 16.0098 10.0476 15.9502 9.95534C15.8909 9.85746 15.8107 9.78411 15.7078 9.73123ZM17.7108 10.4162L17.7177 9.92722C17.7177 9.74698 17.6995 9.62076 17.6601 9.54988C17.6242 9.48598 17.5572 9.43017 17.4662 9.38225C17.3702 9.33724 17.2323 9.31654 17.04 9.31654C16.8372 9.31654 16.6814 9.35097 16.5721 9.4259C16.4679 9.50263 16.3926 9.61198 16.3484 9.76724L16.7302 9.83811C16.7528 9.76184 16.7909 9.70738 16.8317 9.68128C16.872 9.64866 16.936 9.63223 17.0105 9.63223C17.1213 9.63223 17.198 9.65203 17.2353 9.68646C17.2786 9.72403 17.2971 9.78389 17.2971 9.86691V9.90629C17.2209 9.93892 17.0858 9.97289 16.8883 10.0098C16.7426 10.0352 16.6279 10.0721 16.5537 10.1083C16.4753 10.1475 16.4157 10.202 16.3705 10.2717C16.3272 10.3419 16.3057 10.422 16.3057 10.5118C16.3057 10.6468 16.3553 10.7579 16.4486 10.8491C16.5413 10.9359 16.6703 10.9836 16.8372 10.9836C16.9291 10.9836 17.0138 10.9638 17.0998 10.9303C17.1785 10.8912 17.2562 10.8403 17.3299 10.7694C17.3299 10.7694 17.336 10.7926 17.3462 10.8189C17.3597 10.8693 17.371 10.9143 17.3834 10.9402H17.8068C17.7685 10.8606 17.7459 10.7904 17.7302 10.7249C17.7183 10.6589 17.7108 10.5557 17.7108 10.4162ZM17.2971 10.2623C17.2971 10.3619 17.2932 10.4335 17.2819 10.4704C17.2659 10.5251 17.2323 10.5712 17.1812 10.6074C17.1112 10.6589 17.0367 10.6826 16.9619 10.6826C16.8943 10.6826 16.8372 10.6623 16.797 10.6184C16.7503 10.5752 16.7302 10.5251 16.7302 10.465C16.7302 10.4051 16.7594 10.3545 16.8116 10.3129C16.8508 10.2929 16.9291 10.2717 17.04 10.2454C17.1586 10.215 17.2452 10.1948 17.2971 10.1792V10.2623ZM19.1588 10.0206C19.1588 10.2506 19.1483 10.397 19.1301 10.4571C19.1033 10.5118 19.063 10.5629 19.0115 10.6002C18.9513 10.643 18.8871 10.6621 18.8142 10.6621C18.7527 10.6621 18.6992 10.647 18.6559 10.6182C18.6123 10.5876 18.5867 10.5473 18.5729 10.4963C18.5563 10.4463 18.548 10.3057 18.548 10.0822V9.34759H18.1268V10.3606C18.1268 10.5118 18.1445 10.6265 18.1867 10.7116C18.2195 10.7924 18.2818 10.8628 18.3693 10.9089C18.4551 10.9578 18.548 10.9836 18.66 10.9836C18.7635 10.9836 18.865 10.9555 18.9618 10.9047C19.0562 10.8529 19.1359 10.789 19.191 10.6979V10.9402H19.5797V9.34759H19.1588V10.0206ZM21.0572 9.5366C20.9305 9.39035 20.7752 9.31632 20.5981 9.31632C20.4039 9.31632 20.2409 9.38675 20.1165 9.52783C19.9841 9.66688 19.9243 9.87277 19.9243 10.1435C19.9243 10.4092 19.9841 10.6103 20.1207 10.7579C20.2511 10.9089 20.4092 10.9836 20.5926 10.9836C20.6817 10.9836 20.7728 10.9578 20.8599 10.9139C20.9496 10.8644 21.0293 10.7924 21.0911 10.7019V10.9402H21.4839V8.73602H21.0572V9.5366ZM20.9634 10.528C20.8927 10.6103 20.8094 10.6547 20.7137 10.6547C20.5926 10.6547 20.4975 10.5975 20.4246 10.4893C20.3805 10.4092 20.3573 10.2863 20.3573 10.1113C20.3573 9.95512 20.389 9.83271 20.458 9.75733C20.527 9.67498 20.6144 9.63223 20.7112 9.63223C20.8169 9.63223 20.9005 9.67498 20.968 9.75733C21.0334 9.83811 21.0665 9.96884 21.0665 10.1529C21.0665 10.3194 21.0293 10.4443 20.9634 10.528ZM21.9008 8.7367H22.3243V9.13001H21.9008V8.7367ZM21.9008 9.34827H22.3243V10.9407H21.9008V9.34827ZM24.0637 9.96929H25.173V9.59735H24.0637V9.11224H25.2491V8.73647H23.6221V10.9404H25.2911V10.5658H24.0637V9.96929ZM25.6726 8.7367H26.0919V10.9407H25.6726V8.7367ZM27.7009 9.54965C27.5682 9.39462 27.3813 9.31609 27.1395 9.31609C26.9296 9.31609 26.7528 9.39057 26.6149 9.54088C26.4774 9.69186 26.4077 9.89369 26.4077 10.1594C26.4077 10.3797 26.4593 10.5626 26.5639 10.7098C26.6988 10.8885 26.9042 10.9834 27.1858 10.9834C27.3568 10.9834 27.5053 10.94 27.6238 10.8603C27.7395 10.7807 27.8255 10.6621 27.8803 10.5046L27.4544 10.4355C27.4327 10.5197 27.3996 10.5752 27.3548 10.6103C27.3085 10.6515 27.2524 10.6659 27.1878 10.6659C27.0887 10.6659 27.009 10.6308 26.9426 10.5626C26.8753 10.496 26.8429 10.3968 26.8429 10.2713H27.9017C27.907 9.94499 27.8386 9.70738 27.7009 9.54965ZM26.8502 10.0107C26.8462 9.89369 26.8753 9.80144 26.9371 9.73528C26.9943 9.66778 27.075 9.63201 27.1699 9.63201C27.2524 9.63201 27.3315 9.66666 27.3897 9.73101C27.4484 9.79469 27.4831 9.88964 27.4831 10.0107H26.8502ZM29.1315 10.571C29.0821 10.6182 29.0179 10.643 28.9369 10.643C28.8303 10.643 28.7486 10.5984 28.6818 10.5248C28.6191 10.4441 28.5849 10.3093 28.5849 10.1198C28.5849 9.94904 28.6191 9.82709 28.6791 9.75576C28.7464 9.68218 28.8303 9.64483 28.9322 9.64483C29.0093 9.64483 29.0739 9.66666 29.1251 9.70761C29.1728 9.74856 29.2054 9.81021 29.22 9.88986L29.6369 9.81471C29.5888 9.64843 29.5047 9.52175 29.3908 9.43782C29.2774 9.3584 29.122 9.31632 28.9292 9.31632C28.6915 9.31632 28.5013 9.39057 28.3633 9.53525C28.2254 9.68218 28.1559 9.88581 28.1559 10.1495C28.1559 10.409 28.2245 10.6106 28.3633 10.7577C28.5013 10.9087 28.6891 10.9836 28.9181 10.9836C29.1251 10.9836 29.2851 10.9319 29.4124 10.8331C29.5325 10.7384 29.6163 10.595 29.664 10.4002L29.2432 10.33C29.22 10.4463 29.1816 10.5248 29.1315 10.571ZM30.5311 10.631C30.503 10.631 30.4776 10.6234 30.4609 10.6108C30.4375 10.5953 30.4269 10.5757 30.4209 10.5557C30.4139 10.532 30.4112 10.4612 30.4112 10.3302V9.68241H30.7008V9.34759H30.4112V8.7907L29.9858 9.03393V9.34759H29.7973V9.68241H29.9858V10.379C29.9858 10.532 29.9955 10.6265 30.0019 10.6828C30.0136 10.7492 30.0352 10.8052 30.0645 10.8403C30.0899 10.8887 30.1371 10.9168 30.1954 10.9404C30.2543 10.9695 30.3263 10.9836 30.4015 10.9836C30.524 10.9836 30.637 10.96 30.7352 10.9168L30.7049 10.5903C30.6268 10.6184 30.5721 10.631 30.5311 10.631ZM31.5462 9.36245C31.489 9.3998 31.4343 9.46955 31.3668 9.57283V9.34759H30.9773V10.94H31.3939V10.4483C31.3939 10.1792 31.4056 10.0008 31.4343 9.92002C31.4548 9.83271 31.489 9.77444 31.5263 9.74113C31.5689 9.70761 31.6179 9.69321 31.6773 9.69321C31.7401 9.69321 31.807 9.71571 31.8774 9.76184L32.0058 9.39485C31.9189 9.33927 31.8262 9.31632 31.7307 9.31632C31.6598 9.31632 31.598 9.33229 31.5462 9.36245ZM32.1886 9.34827H32.6123V10.9407H32.1886V9.34827ZM32.1886 8.7367H32.6123V9.13001H32.1886V8.7367ZM33.9368 10.571C33.8865 10.6182 33.8209 10.643 33.739 10.643C33.6338 10.643 33.5486 10.5984 33.4828 10.5248C33.4197 10.4441 33.3895 10.3093 33.3895 10.1198C33.3895 9.94904 33.4197 9.82709 33.4828 9.75576C33.5455 9.68218 33.6322 9.64483 33.7366 9.64483C33.8154 9.64483 33.8785 9.66666 33.9257 9.70761C33.9767 9.74856 34.0111 9.81021 34.0233 9.88986L34.4401 9.81471C34.3896 9.64843 34.3082 9.52175 34.1961 9.43782C34.0776 9.3584 33.9215 9.31632 33.7309 9.31632C33.4943 9.31632 33.3001 9.39057 33.1651 9.53525C33.0258 9.68218 32.9565 9.88581 32.9565 10.1495C32.9565 10.409 33.0258 10.6106 33.1651 10.7577C33.3001 10.9087 33.4888 10.9836 33.724 10.9836C33.9257 10.9836 34.0912 10.9319 34.2153 10.8331C34.3353 10.7384 34.4189 10.595 34.4626 10.4002L34.0418 10.33C34.0233 10.4463 33.9875 10.5248 33.9368 10.571ZM34.7621 9.34827H35.1869V10.9407H34.7621V9.34827ZM34.7621 8.7367H35.1869V9.13001H34.7621V8.7367ZM36.193 10.631C36.1621 10.631 36.1369 10.6234 36.1166 10.6108C36.095 10.5953 36.082 10.5757 36.082 10.5557C36.0727 10.532 36.0705 10.4612 36.0705 10.3302V9.68241H36.3596V9.34759H36.0705V8.7907L35.6457 9.03393V9.34759H35.4533V9.68241H35.6457V10.379C35.6457 10.532 35.6506 10.6265 35.6629 10.6828C35.6704 10.7492 35.6929 10.8052 35.7181 10.8403C35.7459 10.8887 35.7929 10.9168 35.8536 10.9404C35.9171 10.9695 35.9855 10.9836 36.0603 10.9836C36.1846 10.9836 36.296 10.96 36.3925 10.9168L36.3596 10.5903C36.2901 10.6184 36.2318 10.631 36.193 10.631ZM37.2741 10.4765L36.8883 9.34759H36.4476L37.0514 10.9472C37.0269 11.032 36.985 11.1099 36.94 11.1697C36.898 11.2257 36.8206 11.2527 36.7248 11.2527C36.671 11.2527 36.612 11.2455 36.5458 11.2325L36.5836 11.5608C36.6643 11.5801 36.742 11.5849 36.8206 11.5849C36.9016 11.5849 36.9717 11.5801 37.0382 11.5608C37.1002 11.5428 37.1531 11.5214 37.1993 11.4897C37.2405 11.4627 37.2789 11.4188 37.314 11.3715C37.3469 11.322 37.3835 11.2527 37.4184 11.1582L37.5237 10.8759L38.0837 9.34759H37.6437L37.2741 10.4765ZM40.4584 10.4891C40.3711 10.5599 40.2715 10.5977 40.1504 10.5977C39.9917 10.5977 39.8602 10.5404 39.7578 10.4218C39.6587 10.3043 39.6108 10.1083 39.6108 9.83091C39.6108 9.5645 39.6587 9.37887 39.76 9.26367C39.8624 9.14554 40.0003 9.08613 40.1579 9.08613C40.2846 9.08613 40.379 9.12191 40.4673 9.18424C40.5491 9.24814 40.6039 9.33702 40.6306 9.45335L41.0682 9.34737C41.0214 9.17209 40.9439 9.03776 40.8435 8.94528C40.6754 8.78597 40.4538 8.70745 40.1848 8.70745C39.8745 8.70745 39.621 8.80735 39.4316 9.01368C39.2416 9.21191 39.1483 9.497 39.1483 9.86174C39.1483 10.2074 39.2416 10.4803 39.4316 10.6826C39.6174 10.8808 39.8602 10.9753 40.1563 10.9753C40.3971 10.9753 40.5917 10.9166 40.7444 10.7964C40.9007 10.6826 41.0135 10.5046 41.0748 10.262L40.6405 10.1266C40.6039 10.2929 40.543 10.409 40.4584 10.4891ZM42.1744 9.31632C42.0178 9.31632 41.8734 9.35097 41.7472 9.41847C41.6188 9.48935 41.5243 9.58835 41.4544 9.71976C41.3822 9.85026 41.3471 9.98369 41.3471 10.1266C41.3471 10.3057 41.3822 10.465 41.4544 10.5953C41.5243 10.7181 41.6205 10.8189 41.7591 10.8824C41.8887 10.9497 42.0281 10.9836 42.1769 10.9836C42.4163 10.9836 42.6142 10.8995 42.7685 10.7417C42.9269 10.5831 43.0064 10.3869 43.0064 10.1435C43.0064 9.90652 42.9269 9.70761 42.7734 9.54988C42.6142 9.39485 42.4198 9.31632 42.1744 9.31632ZM42.454 10.5118C42.3808 10.5977 42.2918 10.643 42.1744 10.643C42.0645 10.643 41.9712 10.5977 41.901 10.5118C41.8214 10.4335 41.7841 10.3057 41.7841 10.1475C41.7841 9.98707 41.8214 9.86669 41.901 9.78389C41.9712 9.69973 42.0645 9.65518 42.1744 9.65518C42.2918 9.65518 42.3808 9.69973 42.454 9.78389C42.5304 9.86669 42.5686 9.98707 42.5686 10.1475C42.5686 10.3057 42.5304 10.4335 42.454 10.5118ZM45.4332 9.38675C45.3531 9.33724 45.2551 9.31654 45.1342 9.31654C45.0446 9.31654 44.9554 9.33724 44.8766 9.3746C44.7937 9.42027 44.7149 9.48193 44.6478 9.56473C44.5997 9.48193 44.5374 9.42027 44.4611 9.3746C44.3861 9.33724 44.2971 9.31654 44.1961 9.31654C43.9986 9.31654 43.8322 9.40002 43.6942 9.5636V9.34759H43.3036V10.9402H43.7269V10.1673C43.7269 10.0109 43.7373 9.90652 43.7598 9.83811C43.7858 9.77466 43.8207 9.72403 43.8745 9.68646C43.9277 9.65203 43.9851 9.63223 44.0515 9.63223C44.104 9.63223 44.146 9.64483 44.176 9.66688C44.2089 9.69231 44.2356 9.72403 44.2497 9.76769C44.2684 9.81021 44.2711 9.91349 44.2711 10.0685V10.9402H44.6948V10.1759C44.6948 10.0246 44.7078 9.91777 44.733 9.84374C44.7542 9.77714 44.7937 9.72403 44.8449 9.69231C44.8963 9.65203 44.9512 9.63223 45.0117 9.63223C45.0931 9.63223 45.1549 9.66418 45.1959 9.72403C45.2209 9.77061 45.2366 9.87299 45.2366 10.0282V10.9402H45.6607V9.92564C45.6607 9.77466 45.6435 9.66036 45.617 9.59263C45.5753 9.50533 45.5203 9.43017 45.4332 9.38675ZM46.9629 9.31632C46.851 9.31632 46.7606 9.33702 46.6705 9.39057C46.5875 9.4376 46.5134 9.50263 46.4633 9.58048V9.34759H46.0639V11.5428H46.4909V10.7492C46.5736 10.8331 46.6471 10.8914 46.7182 10.9303C46.7906 10.9636 46.868 10.9836 46.9616 10.9836C47.1461 10.9836 47.305 10.9089 47.4352 10.7573C47.5656 10.6101 47.6327 10.4045 47.6327 10.143C47.6327 9.87726 47.5656 9.67993 47.4376 9.53098C47.3094 9.39057 47.152 9.31632 46.9629 9.31632ZM47.0995 10.5282C47.0335 10.6074 46.951 10.6468 46.851 10.6468C46.7504 10.6468 46.665 10.6 46.5884 10.5161C46.5202 10.4335 46.486 10.3019 46.486 10.1198C46.486 9.96119 46.5189 9.84374 46.5884 9.76296C46.6562 9.68646 46.7356 9.64483 46.8471 9.64483C46.9466 9.64483 47.032 9.68646 47.0995 9.76746C47.1642 9.85026 47.1977 9.97289 47.1977 10.1435C47.1977 10.3194 47.1642 10.4483 47.0995 10.5282ZM49.2599 10.4155L49.2648 9.92654C49.2648 9.74699 49.2445 9.62008 49.2096 9.5492C49.1697 9.4853 49.1046 9.4295 49.0128 9.38157C48.9205 9.33702 48.7791 9.31632 48.5915 9.31632C48.3861 9.31632 48.2285 9.3503 48.1213 9.42522C48.0166 9.50263 47.9412 9.61131 47.8986 9.76724L48.2784 9.83744C48.3077 9.76116 48.3391 9.70738 48.3845 9.67993C48.4245 9.64821 48.4801 9.63156 48.5573 9.63156C48.6714 9.63156 48.7471 9.65136 48.7857 9.68601C48.8274 9.72336 48.8504 9.78321 48.8504 9.86669V9.90607C48.7725 9.93869 48.6317 9.97289 48.4348 10.0091C48.2912 10.0352 48.18 10.0721 48.1038 10.1079C48.0242 10.1475 47.9595 10.2013 47.9218 10.2715C47.8801 10.3412 47.8553 10.4204 47.8553 10.5111C47.8553 10.6466 47.905 10.7573 47.9952 10.8489C48.0919 10.9353 48.2195 10.9836 48.3861 10.9836C48.4801 10.9836 48.5659 10.9632 48.65 10.9296C48.7325 10.8912 48.8056 10.8401 48.8762 10.7694C48.8815 10.778 48.8855 10.7919 48.893 10.8189C48.9113 10.8687 48.9205 10.9139 48.9353 10.9395H49.3555C49.3186 10.8606 49.2957 10.7901 49.282 10.7249C49.2661 10.6587 49.2599 10.5557 49.2599 10.4155ZM48.8504 10.2616C48.8504 10.3613 48.8398 10.4333 48.8292 10.4704C48.8153 10.5237 48.7826 10.5705 48.7325 10.6067C48.6608 10.6587 48.5915 10.6823 48.5163 10.6823C48.4441 10.6823 48.3894 10.6621 48.3472 10.6178C48.3007 10.5752 48.2784 10.5237 48.2784 10.4643C48.2784 10.4045 48.3077 10.3545 48.3605 10.3122C48.3942 10.292 48.4754 10.2715 48.5915 10.2454C48.7063 10.215 48.7921 10.1941 48.8504 10.1792V10.2616ZM51.026 9.49317C50.9867 9.4394 50.928 9.39867 50.8504 9.36245C50.7782 9.33229 50.6891 9.31632 50.5944 9.31632C50.3876 9.31632 50.2104 9.40565 50.0725 9.5807V9.34692H49.6797V10.9398H50.1034V10.2177C50.1034 10.0402 50.1118 9.92092 50.136 9.85341C50.1539 9.78659 50.1945 9.73528 50.255 9.69591C50.3106 9.65518 50.3768 9.63156 50.4509 9.63156C50.5052 9.63156 50.5571 9.64843 50.5944 9.67993C50.6299 9.70356 50.6648 9.74698 50.6838 9.79469C50.6981 9.84306 50.7076 9.95624 50.7076 10.1261V10.9398H51.1304V9.95017C51.1304 9.83046 51.1229 9.73528 51.1066 9.66778C51.0922 9.5987 51.0651 9.54605 51.026 9.49317ZM52.563 9.34715L52.1888 10.4762L51.809 9.34715H51.3604L51.9648 10.9472C51.9385 11.0313 51.9052 11.1101 51.858 11.1697C51.8149 11.226 51.7362 11.2527 51.6395 11.2527C51.5865 11.2527 51.5296 11.2451 51.4625 11.2325L51.4994 11.561C51.5733 11.5799 51.6578 11.5851 51.7362 11.5851C51.8149 11.5851 51.8909 11.5799 51.9509 11.561C52.0166 11.543 52.0742 11.521 52.1133 11.489C52.1572 11.4622 52.1978 11.4186 52.2307 11.3713C52.2665 11.3216 52.3007 11.2527 52.3335 11.1582L52.4408 10.8761L53 9.34715H52.563Z" fill="black"/>
</svg>
