<svg width="51" height="25" viewBox="0 0 51 25" fill="none" xmlns="http://www.w3.org/2000/svg">
<path d="M0.781605 7.77273H2.27734L4.55717 11.7401H4.65092L6.93075 7.77273H8.42649L5.2603 13.0739V16.5H3.9478V13.0739L0.781605 7.77273ZM11.2464 16.6321C10.6328 16.6321 10.0973 16.4915 9.63991 16.2102C9.18253 15.929 8.82741 15.5355 8.57457 15.0298C8.32173 14.5241 8.19531 13.9332 8.19531 13.2571C8.19531 12.5781 8.32173 11.9844 8.57457 11.4759C8.82741 10.9673 9.18253 10.5724 9.63991 10.2912C10.0973 10.0099 10.6328 9.86932 11.2464 9.86932C11.8601 9.86932 12.3956 10.0099 12.853 10.2912C13.3104 10.5724 13.6655 10.9673 13.9183 11.4759C14.1712 11.9844 14.2976 12.5781 14.2976 13.2571C14.2976 13.9332 14.1712 14.5241 13.9183 15.0298C13.6655 15.5355 13.3104 15.929 12.853 16.2102C12.3956 16.4915 11.8601 16.6321 11.2464 16.6321ZM11.2507 15.5625C11.6484 15.5625 11.978 15.4574 12.2393 15.2472C12.5007 15.0369 12.6939 14.7571 12.8189 14.4077C12.9467 14.0582 13.0107 13.6733 13.0107 13.2528C13.0107 12.8352 12.9467 12.4517 12.8189 12.1023C12.6939 11.75 12.5007 11.4673 12.2393 11.2543C11.978 11.0412 11.6484 10.9347 11.2507 10.9347C10.8501 10.9347 10.5178 11.0412 10.2536 11.2543C9.99219 11.4673 9.79759 11.75 9.66974 12.1023C9.54474 12.4517 9.48224 12.8352 9.48224 13.2528C9.48224 13.6733 9.54474 14.0582 9.66974 14.4077C9.79759 14.7571 9.99219 15.0369 10.2536 15.2472C10.5178 15.4574 10.8501 15.5625 11.2507 15.5625ZM19.8661 13.7855V9.95455H21.1445V16.5H19.8917V15.3665H19.8235C19.6729 15.7159 19.4315 16.0071 19.0991 16.2401C18.7695 16.4702 18.359 16.5852 17.8675 16.5852C17.4471 16.5852 17.0749 16.4929 16.7511 16.3082C16.43 16.1207 16.1772 15.8438 15.9925 15.4773C15.8107 15.1108 15.7198 14.6577 15.7198 14.1179V9.95455H16.994V13.9645C16.994 14.4105 17.1175 14.7656 17.3647 15.0298C17.6119 15.294 17.9329 15.4261 18.3278 15.4261C18.5664 15.4261 18.8036 15.3665 19.0394 15.2472C19.2781 15.1278 19.4755 14.9474 19.6317 14.706C19.7908 14.4645 19.869 14.1577 19.8661 13.7855Z" fill="white"/>
<path d="M33.1201 18.4209C32.7295 18.4209 32.4219 18.333 32.1973 18.1572C31.9775 17.9863 31.8677 17.7495 31.8677 17.4468C31.8677 16.978 32.0093 16.4824 32.2925 15.96C32.5757 15.4375 32.9858 14.9492 33.5229 14.4951C34.0601 14.0361 34.707 13.665 35.4639 13.3818C36.2256 13.0938 37.0801 12.9497 38.0273 12.9497C38.9795 12.9497 39.834 13.0938 40.5908 13.3818C41.3525 13.665 41.9995 14.0361 42.5317 14.4951C43.0688 14.9492 43.479 15.4375 43.7622 15.96C44.0503 16.4824 44.1943 16.978 44.1943 17.4468C44.1943 17.7495 44.082 17.9863 43.8574 18.1572C43.6377 18.333 43.3325 18.4209 42.9419 18.4209H33.1201ZM38.0347 11.6387C37.5122 11.6387 37.0288 11.4971 36.5845 11.2139C36.1401 10.9258 35.7812 10.54 35.5078 10.0566C35.2393 9.56836 35.105 9.02148 35.105 8.41602C35.105 7.82031 35.2393 7.2832 35.5078 6.80469C35.7812 6.32617 36.1401 5.94775 36.5845 5.66943C37.0288 5.39111 37.5122 5.25195 38.0347 5.25195C38.5571 5.25195 39.0405 5.38867 39.4849 5.66211C39.9292 5.93555 40.2856 6.31152 40.5542 6.79004C40.8276 7.26367 40.9644 7.80078 40.9644 8.40137C40.9644 9.01172 40.8276 9.56104 40.5542 10.0493C40.2856 10.5376 39.9292 10.9258 39.4849 11.2139C39.0405 11.4971 38.5571 11.6387 38.0347 11.6387Z" fill="white"/>
</svg>