<?xml version="1.0" encoding="UTF-8"?>
<svg width="19px" height="21px" viewBox="0 0 19 21" version="1.1" xmlns="http://www.w3.org/2000/svg" xmlns:xlink="http://www.w3.org/1999/xlink">
    <!-- Generator: Sketch 46.2 (44496) - http://www.bohemiancoding.com/sketch -->
    <title>Group 8</title>
    <desc>Created with Sketch.</desc>
    <defs></defs>
    <g id="Page-1" stroke="none" stroke-width="1" fill="none" fill-rule="evenodd">
        <g id="Group-8" fill="#777777">
            <path d="M16.3768657,1.38059701 L14.858209,1.38059701 L14.858209,0.414179104 C14.858209,0.193283582 14.6649254,0 14.4440299,0 C14.2231343,0 14.0298507,0.193283582 14.0298507,0.414179104 L14.0298507,1.38059701 L5.47014925,1.38059701 L5.47014925,0.414179104 C5.47014925,0.193283582 5.27686567,0 5.05597015,0 C4.83507463,0 4.64179104,0.193283582 4.64179104,0.414179104 L4.64179104,1.38059701 L3.12313433,1.38059701 C1.68731343,1.38059701 0.5,2.56791045 0.5,4.00373134 L0.5,17.4962687 C0.5,18.9320896 1.68731343,20.119403 3.12313433,20.119403 L16.3768657,20.119403 C17.8126866,20.119403 19,18.9320896 19,17.4962687 L19,4.00373134 C19,2.54029851 17.8126866,1.38059701 16.3768657,1.38059701 Z M3.12313433,2.20895522 L4.64179104,2.20895522 L4.64179104,4.27985075 C4.64179104,4.50074627 4.83507463,4.69402985 5.05597015,4.69402985 C5.27686567,4.69402985 5.47014925,4.50074627 5.47014925,4.27985075 L5.47014925,2.20895522 L14.0298507,2.20895522 L14.0298507,4.27985075 C14.0298507,4.50074627 14.2231343,4.69402985 14.4440299,4.69402985 C14.6649254,4.69402985 14.858209,4.50074627 14.858209,4.27985075 L14.858209,2.20895522 L16.3768657,2.20895522 C17.3708955,2.20895522 18.1716418,3.00970149 18.1716418,4.00373134 L18.1716418,6.87537313 L1.32835821,6.87537313 L1.32835821,4.00373134 C1.32835821,3.00970149 2.12910448,2.20895522 3.12313433,2.20895522 Z M16.3768657,19.2910448 L3.12313433,19.2910448 C2.12910448,19.2910448 1.32835821,18.4902985 1.32835821,17.4962687 L1.32835821,7.70373134 L18.1716418,7.70373134 L18.1716418,17.4962687 C18.1716418,18.4902985 17.3708955,19.2910448 16.3768657,19.2910448 Z" id="Shape" fill-rule="nonzero"></path>
            <text id="3" font-family="Helvetica-Bold, Helvetica" font-size="8" font-weight="bold">
                <tspan x="7" y="16">3</tspan>
            </text>
        </g>
    </g>
</svg>