<svg width="70" height="70" viewBox="0 0 70 70" fill="none" xmlns="http://www.w3.org/2000/svg">
    <circle cx="35" cy="35" r="35" fill="#FF7300" />
    <path
        d="M24.6895 50.7021C25.1289 50.7021 25.7051 50.5947 26.418 50.3799C27.1309 50.165 27.8975 49.877 28.7178 49.5156C29.5479 49.1543 30.3633 48.7539 31.1641 48.3145C31.9746 47.8848 32.6924 47.4453 33.3174 46.9961C33.4443 46.9082 33.5615 46.8447 33.6689 46.8057C33.7764 46.7666 33.8789 46.7471 33.9766 46.7471C34.0742 46.7568 34.1719 46.7617 34.2695 46.7617C34.3672 46.7715 34.46 46.7764 34.5479 46.7764C36.6572 46.7764 38.6152 46.5518 40.4219 46.1025C42.2285 45.6533 43.8496 45.0186 45.2852 44.1982C46.7305 43.3779 47.9609 42.416 48.9766 41.3125C49.9922 40.1992 50.7686 38.9785 51.3057 37.6504C51.8428 36.3223 52.1113 34.9307 52.1113 33.4756C52.1113 31.6299 51.6816 29.9014 50.8223 28.29C49.9727 26.6787 48.7861 25.2676 47.2627 24.0566C45.749 22.8359 43.9863 21.8838 41.9746 21.2002C39.9629 20.5068 37.8047 20.1602 35.5 20.1602C33.1953 20.1602 31.0371 20.5068 29.0254 21.2002C27.0137 21.8838 25.2461 22.8359 23.7227 24.0566C22.209 25.2676 21.0225 26.6787 20.1631 28.29C19.3135 29.9014 18.8887 31.6299 18.8887 33.4756C18.8887 35.0381 19.1914 36.5225 19.7969 37.9287C20.4121 39.335 21.2861 40.624 22.4189 41.7959C23.5615 42.958 24.9141 43.959 26.4766 44.7988C26.584 44.8574 26.6523 44.9404 26.6816 45.0479C26.7207 45.1455 26.7109 45.248 26.6523 45.3555C26.3789 45.8047 26.0566 46.2686 25.6855 46.7471C25.3145 47.2256 24.9531 47.665 24.6016 48.0654C24.2598 48.4756 23.9961 48.8027 23.8105 49.0469C23.5273 49.418 23.459 49.7842 23.6055 50.1455C23.7617 50.5166 24.123 50.7021 24.6895 50.7021Z"
        fill="white" />
</svg>